<mxfile host="app.diagrams.net" agent="Mozilla/5.0 (X11; Linux x86_64) AppleWebKit/537.36 (KHTML, like Gecko) Chrome/120.0.0.0 Safari/537.36" version="27.1.6">
  <diagram id="f106602c-feb2-e66a-4537-3a34d633f6aa" name="Page-1">
    <mxGraphModel dx="1223" dy="704" grid="1" gridSize="10" guides="1" tooltips="1" connect="1" arrows="1" fold="1" page="1" pageScale="1" pageWidth="1169" pageHeight="827" background="#000000" math="0" shadow="0">
      <root>
        <mxCell id="0" />
        <mxCell id="1" parent="0" />
        <mxCell id="UfiFrbzt1qPrqhalN9Oj-29" value="" style="rounded=1;whiteSpace=wrap;html=1;arcSize=13;dashed=1;strokeColor=#999999;strokeWidth=2;fillColor=none;" parent="1" vertex="1">
          <mxGeometry x="710" y="20" width="430" height="470" as="geometry" />
        </mxCell>
        <object label="" id="your-computer-border">
          <mxCell style="rounded=1;whiteSpace=wrap;html=1;arcSize=13;dashed=1;strokeColor=#999999;strokeWidth=2;fillColor=none;" parent="1" vertex="1">
            <mxGeometry x="10" y="20" width="660" height="470" as="geometry" />
          </mxCell>
        </object>
        <object label="" id="mcp-host-border">
          <mxCell style="rounded=1;whiteSpace=wrap;html=1;arcSize=13;dashed=1;strokeColor=#999999;strokeWidth=2;fillColor=none;" parent="1" vertex="1">
            <mxGeometry x="47.5" y="75" width="192.5" height="360" as="geometry" />
          </mxCell>
        </object>
        <object label="&lt;font&gt;MCP Host&lt;/font&gt;" id="mcp-host-title">
          <mxCell style="text;html=1;align=center;verticalAlign=middle;whiteSpace=wrap;rounded=1;fillColor=light-dark(#7d7d7d, #ededed);fontColor=#FFFFFF;fontSize=20;" parent="1" vertex="1">
            <mxGeometry x="87.5" y="60" width="112.5" height="30" as="geometry" />
          </mxCell>
        </object>
        <object label="&lt;font&gt;Your Computer&lt;/font&gt;" id="your-computer-title">
          <mxCell style="text;html=1;align=center;verticalAlign=middle;whiteSpace=wrap;rounded=1;fillColor=light-dark(#7d7d7d, #ededed);fontColor=#FFFFFF;fontSize=20;" parent="1" vertex="1">
            <mxGeometry x="265" y="5" width="150" height="30" as="geometry" />
          </mxCell>
        </object>
        <object label="" id="mcp-server-1">
          <mxCell style="group" parent="1" vertex="1" connectable="0">
            <mxGeometry x="326" y="119" width="155.19" height="60" as="geometry" />
          </mxCell>
        </object>
        <mxCell id="UfiFrbzt1qPrqhalN9Oj-3" value="" style="rounded=1;whiteSpace=wrap;html=1;fillColor=#4798CA;strokeColor=none;opacity=40;" parent="mcp-server-1" vertex="1">
          <mxGeometry width="155.19" height="60" as="geometry" />
        </mxCell>
        <mxCell id="UfiFrbzt1qPrqhalN9Oj-16" value="" style="shape=image;editableCssRules=.*;verticalLabelPosition=bottom;labelBackgroundColor=default;verticalAlign=top;aspect=fixed;imageAspect=0;editableCssRules=.*;image=data:image/svg+xml,PHN2ZyB4bWxucz0iaHR0cDovL3d3dy53My5vcmcvMjAwMC9zdmciIHZpZXdCb3g9IjEyLjY0NzU5NzMxMjkyNzI0NiAxMi4xNzkyOTc0NDcyMDQ1OSA3NC43MTE0MTA1MjI0NjA5NCA3NS42MjEwMDIxOTcyNjU2MiIgdmVyc2lvbj0iMS4xIiB3aWR0aD0iNzQuNzExNDEwNTIyNDYwOTQiIGhlaWdodD0iNzUuNjIxMDAyMTk3MjY1NjIiPiYjeGE7ICA8c3R5bGU+LmZpbGwgeyBmaWxsOiByZ2IoOTEsIDE5NCwgMjU1KTsgfSA8L3N0eWxlPiYjeGE7IDxwYXRoIGQ9Im04Ny4zNTkgMzIuMTIxdi0xMy4yNjJjMC0zLjY5MTQtMy02LjY3OTctNi42Nzk3LTYuNjc5N2gtNjEuMzUyYy0zLjY3OTcgMC02LjY3OTcgMy02LjY3OTcgNi42Nzk3djEzLjI1YzAgMi4xNDA2IDEuMDE5NSA0LjA1MDggMi41ODk4IDUuMjY5NS0xLjU3MDMgMS4yMTg4LTIuNTg5OCAzLjEyODktMi41ODk4IDUuMjY5NXYxMy4yNWMwIDMuNjkxNCAzIDYuNjc5NyA2LjY3OTcgNi42Nzk3aDI5LjE3MnY3LjA3MDNjLTMuODM5OCAwLjY0MDYyLTYuODcxMSAzLjY3MTktNy41MTE3IDcuNTExN2gtMjIuNTY2Yy0wLjgyODEyIDAtMS41IDAuNjcxODgtMS41IDEuNXMwLjY3MTg4IDEuNSAxLjUgMS41aDIyLjU3YzAuNzE4NzUgNC4zMjgxIDQuNDgwNSA3LjY0MDYgOS4wMTE3IDcuNjQwNnM4LjI4OTEtMy4zMDg2IDkuMDExNy03LjY0MDZoMjIuNTc4YzAuODI4MTIgMCAxLjUtMC42NzE4OCAxLjUtMS41cy0wLjY3MTg4LTEuNS0xLjUtMS41aC0yMi41ODJjLTAuNjQwNjItMy44Mzk4LTMuNjcxOS02Ljg3MTEtNy41MTE3LTcuNTExN3YtNy4wNDY5aDI5LjE4YzMuNjc5NyAwIDYuNjc5Ny0zIDYuNjc5Ny02LjY3OTd2LTEzLjI1YzAtMi4xNDA2LTEuMDE5NS00LjA1MDgtMi41ODk4LTUuMjY5NSAxLjU3MDMtMS4yMzA1IDIuNTg5OC0zLjE0MDYgMi41ODk4LTUuMjgxMnptLTMxLjIxOSA0Ni41NTljMCAzLjM5MDYtMi43NjE3IDYuMTQwNi02LjE0MDYgNi4xNDA2cy02LjE0MDYtMi43NjE3LTYuMTQwNi02LjE0MDZjMC0zLjM3ODkgMi43MzgzLTYuMTI4OSA2LjEyMTEtNi4xNDA2aDAuMDE5NTMxIDAuMDE5NTMxYzMuMzc4OSAwLjAxMTcxOSA2LjEyMTEgMi43NjE3IDYuMTIxMSA2LjE0MDZ6bTI4LjIxOS01OS44MnYxMy4yNWMwIDIuMDMxMi0xLjY0ODQgMy42Nzk3LTMuNjc5NyAzLjY3OTdoLTAuNjk5MjJ2LTIwLjYwOWgwLjY5OTIyYzIuMDMxMiAwIDMuNjc5NyAxLjY0ODQgMy42Nzk3IDMuNjc5N3ptLTYxLjMyOCAxNi45NDF2LTIwLjYyMWg1My45NDFsLTAuMDAzOTA2IDIwLjYyMXptLTcuMzkwNi0xNi45NDFjMC0yLjAzMTIgMS42NDg0LTMuNjc5NyAzLjY3OTctMy42Nzk3aDAuNjk5MjJ2MjAuNjIxaC0wLjY5OTIyYy0yLjAzMTIgMC0zLjY3OTctMS42NDg0LTMuNjc5Ny0zLjY3OTd6bTY4LjcxOSAzNy4wNjJjMCAyLjAzMTItMS42NDg0IDMuNjc5Ny0zLjY3OTcgMy42Nzk3aC02MS4zNTJjLTIuMDMxMiAwLTMuNjc5Ny0xLjY0ODQtMy42Nzk3LTMuNjc5N3YtMTMuMjVjMC0yLjAzMTIgMS42NDg0LTMuNjc5NyAzLjY3OTctMy42Nzk3aDYxLjM1MmMyLjAzMTIgMCAzLjY3OTcgMS42NDg0IDMuNjc5NyAzLjY3OTd6IiBjbGFzcz0iZmlsbCIvPiYjeGE7IDxwYXRoIGQ9Im0zNy43NSAyMi41NTljLTAuODI4MTIgMC0xLjUgMC42NzE4OC0xLjUgMS41djMuOTEwMmMwIDAuODI4MTIgMC42NzE4OCAxLjUgMS41IDEuNXMxLjUtMC42NzE4OCAxLjUtMS41di0zLjkxMDJjMC0wLjgyODEyLTAuNjcxODgtMS41LTEuNS0xLjV6IiBjbGFzcz0iZmlsbCIvPiYjeGE7IDxwYXRoIGQ9Im00NC43MyAyMi41NTljLTAuODI4MTIgMC0xLjUgMC42NzE4OC0xLjUgMS41djMuOTEwMmMwIDAuODI4MTIgMC42NzE4OCAxLjUgMS41IDEuNXMxLjUtMC42NzE4OCAxLjUtMS41di0zLjkxMDJjMC0wLjgyODEyLTAuNjcxODgtMS41LTEuNS0xLjV6IiBjbGFzcz0iZmlsbCIvPiYjeGE7IDxwYXRoIGQ9Im02Ni4xMjkgMjQuNTJoLTE1LjQxOGMtMC44MjgxMyAwLTEuNSAwLjY3MTg4LTEuNSAxLjVzMC42NzE4NyAxLjUgMS41IDEuNWgxNS40MjJjMC44MjgxMyAwIDEuNS0wLjY3MTg4IDEuNS0xLjUtMC4wMDM5MDYtMC44MjgxMi0wLjY3MTg3LTEuNS0xLjUwMzktMS41eiIgY2xhc3M9ImZpbGwiLz4mI3hhOyA8cGF0aCBkPSJtMjkuMTggNDQuODI4Yy0wLjgyODEzIDAtMS41IDAuNjcxODgtMS41IDEuNXY1Ljg3MTFjMCAwLjgyODEyIDAuNjcxODcgMS41IDEuNSAxLjUgMC44MjgxMiAwIDEuNS0wLjY3MTg4IDEuNS0xLjV2LTUuODcxMWMwLTAuODI4MTItMC42Njc5Ny0xLjUtMS41LTEuNXoiIGNsYXNzPSJmaWxsIi8+JiN4YTsgPHBhdGggZD0ibTc0LjU5IDQ3LjcxOWgtMjQuNTljLTAuODI4MTIgMC0xLjUgMC42NzE4OC0xLjUgMS41czAuNjcxODggMS41IDEuNSAxLjVoMjQuNTljMC44MjgxMiAwIDEuNS0wLjY3MTg4IDEuNS0xLjVzLTAuNjY3OTctMS41LTEuNS0xLjV6IiBjbGFzcz0iZmlsbCIvPiYjeGE7IDxwYXRoIGQ9Im00MC42OTkgNDQuODI4Yy0wLjgyODEyIDAtMS41IDAuNjcxODgtMS41IDEuNXY1Ljg3MTFjMCAwLjgyODEyIDAuNjcxODggMS41IDEuNSAxLjVzMS41LTAuNjcxODggMS41LTEuNXYtNS44NzExYzAtMC44MjgxMi0wLjY3OTY5LTEuNS0xLjUtMS41eiIgY2xhc3M9ImZpbGwiLz48L3N2Zz4=;" parent="mcp-server-1" vertex="1">
          <mxGeometry x="13.455882755865058" y="16.71242650836235" width="26.229670072492723" height="26.575146983275303" as="geometry" />
        </mxCell>
        <mxCell id="UfiFrbzt1qPrqhalN9Oj-17" value="MCP Server 1" style="text;html=1;align=center;verticalAlign=middle;whiteSpace=wrap;rounded=0;fontColor=light-dark(#FFFFFF,#FFFFFF);fontSize=19;fontStyle=1" parent="mcp-server-1" vertex="1">
          <mxGeometry x="50.546926765226324" y="15" width="79.72544094982591" height="30" as="geometry" />
        </mxCell>
        <object label="" id="mcp-server-2">
          <mxCell style="group" parent="1" vertex="1" connectable="0">
            <mxGeometry x="325" y="239" width="155.19" height="60" as="geometry" />
          </mxCell>
        </object>
        <mxCell id="UfiFrbzt1qPrqhalN9Oj-20" value="" style="rounded=1;whiteSpace=wrap;html=1;fillColor=#4798CA;strokeColor=none;opacity=40;" parent="mcp-server-2" vertex="1">
          <mxGeometry width="155.19" height="60" as="geometry" />
        </mxCell>
        <mxCell id="UfiFrbzt1qPrqhalN9Oj-21" value="" style="shape=image;editableCssRules=.*;verticalLabelPosition=bottom;labelBackgroundColor=default;verticalAlign=top;aspect=fixed;imageAspect=0;editableCssRules=.*;image=data:image/svg+xml,PHN2ZyB4bWxucz0iaHR0cDovL3d3dy53My5vcmcvMjAwMC9zdmciIHZpZXdCb3g9IjEyLjY0NzU5NzMxMjkyNzI0NiAxMi4xNzkyOTc0NDcyMDQ1OSA3NC43MTE0MTA1MjI0NjA5NCA3NS42MjEwMDIxOTcyNjU2MiIgdmVyc2lvbj0iMS4xIiB3aWR0aD0iNzQuNzExNDEwNTIyNDYwOTQiIGhlaWdodD0iNzUuNjIxMDAyMTk3MjY1NjIiPiYjeGE7ICA8c3R5bGU+LmZpbGwgeyBmaWxsOiByZ2IoOTEsIDE5NCwgMjU1KTsgfSA8L3N0eWxlPiYjeGE7IDxwYXRoIGQ9Im04Ny4zNTkgMzIuMTIxdi0xMy4yNjJjMC0zLjY5MTQtMy02LjY3OTctNi42Nzk3LTYuNjc5N2gtNjEuMzUyYy0zLjY3OTcgMC02LjY3OTcgMy02LjY3OTcgNi42Nzk3djEzLjI1YzAgMi4xNDA2IDEuMDE5NSA0LjA1MDggMi41ODk4IDUuMjY5NS0xLjU3MDMgMS4yMTg4LTIuNTg5OCAzLjEyODktMi41ODk4IDUuMjY5NXYxMy4yNWMwIDMuNjkxNCAzIDYuNjc5NyA2LjY3OTcgNi42Nzk3aDI5LjE3MnY3LjA3MDNjLTMuODM5OCAwLjY0MDYyLTYuODcxMSAzLjY3MTktNy41MTE3IDcuNTExN2gtMjIuNTY2Yy0wLjgyODEyIDAtMS41IDAuNjcxODgtMS41IDEuNXMwLjY3MTg4IDEuNSAxLjUgMS41aDIyLjU3YzAuNzE4NzUgNC4zMjgxIDQuNDgwNSA3LjY0MDYgOS4wMTE3IDcuNjQwNnM4LjI4OTEtMy4zMDg2IDkuMDExNy03LjY0MDZoMjIuNTc4YzAuODI4MTIgMCAxLjUtMC42NzE4OCAxLjUtMS41cy0wLjY3MTg4LTEuNS0xLjUtMS41aC0yMi41ODJjLTAuNjQwNjItMy44Mzk4LTMuNjcxOS02Ljg3MTEtNy41MTE3LTcuNTExN3YtNy4wNDY5aDI5LjE4YzMuNjc5NyAwIDYuNjc5Ny0zIDYuNjc5Ny02LjY3OTd2LTEzLjI1YzAtMi4xNDA2LTEuMDE5NS00LjA1MDgtMi41ODk4LTUuMjY5NSAxLjU3MDMtMS4yMzA1IDIuNTg5OC0zLjE0MDYgMi41ODk4LTUuMjgxMnptLTMxLjIxOSA0Ni41NTljMCAzLjM5MDYtMi43NjE3IDYuMTQwNi02LjE0MDYgNi4xNDA2cy02LjE0MDYtMi43NjE3LTYuMTQwNi02LjE0MDZjMC0zLjM3ODkgMi43MzgzLTYuMTI4OSA2LjEyMTEtNi4xNDA2aDAuMDE5NTMxIDAuMDE5NTMxYzMuMzc4OSAwLjAxMTcxOSA2LjEyMTEgMi43NjE3IDYuMTIxMSA2LjE0MDZ6bTI4LjIxOS01OS44MnYxMy4yNWMwIDIuMDMxMi0xLjY0ODQgMy42Nzk3LTMuNjc5NyAzLjY3OTdoLTAuNjk5MjJ2LTIwLjYwOWgwLjY5OTIyYzIuMDMxMiAwIDMuNjc5NyAxLjY0ODQgMy42Nzk3IDMuNjc5N3ptLTYxLjMyOCAxNi45NDF2LTIwLjYyMWg1My45NDFsLTAuMDAzOTA2IDIwLjYyMXptLTcuMzkwNi0xNi45NDFjMC0yLjAzMTIgMS42NDg0LTMuNjc5NyAzLjY3OTctMy42Nzk3aDAuNjk5MjJ2MjAuNjIxaC0wLjY5OTIyYy0yLjAzMTIgMC0zLjY3OTctMS42NDg0LTMuNjc5Ny0zLjY3OTd6bTY4LjcxOSAzNy4wNjJjMCAyLjAzMTItMS42NDg0IDMuNjc5Ny0zLjY3OTcgMy42Nzk3aC02MS4zNTJjLTIuMDMxMiAwLTMuNjc5Ny0xLjY0ODQtMy42Nzk3LTMuNjc5N3YtMTMuMjVjMC0yLjAzMTIgMS42NDg0LTMuNjc5NyAzLjY3OTctMy42Nzk3aDYxLjM1MmMyLjAzMTIgMCAzLjY3OTcgMS42NDg0IDMuNjc5NyAzLjY3OTd6IiBjbGFzcz0iZmlsbCIvPiYjeGE7IDxwYXRoIGQ9Im0zNy43NSAyMi41NTljLTAuODI4MTIgMC0xLjUgMC42NzE4OC0xLjUgMS41djMuOTEwMmMwIDAuODI4MTIgMC42NzE4OCAxLjUgMS41IDEuNXMxLjUtMC42NzE4OCAxLjUtMS41di0zLjkxMDJjMC0wLjgyODEyLTAuNjcxODgtMS41LTEuNS0xLjV6IiBjbGFzcz0iZmlsbCIvPiYjeGE7IDxwYXRoIGQ9Im00NC43MyAyMi41NTljLTAuODI4MTIgMC0xLjUgMC42NzE4OC0xLjUgMS41djMuOTEwMmMwIDAuODI4MTIgMC42NzE4OCAxLjUgMS41IDEuNXMxLjUtMC42NzE4OCAxLjUtMS41di0zLjkxMDJjMC0wLjgyODEyLTAuNjcxODgtMS41LTEuNS0xLjV6IiBjbGFzcz0iZmlsbCIvPiYjeGE7IDxwYXRoIGQ9Im02Ni4xMjkgMjQuNTJoLTE1LjQxOGMtMC44MjgxMyAwLTEuNSAwLjY3MTg4LTEuNSAxLjVzMC42NzE4NyAxLjUgMS41IDEuNWgxNS40MjJjMC44MjgxMyAwIDEuNS0wLjY3MTg4IDEuNS0xLjUtMC4wMDM5MDYtMC44MjgxMi0wLjY3MTg3LTEuNS0xLjUwMzktMS41eiIgY2xhc3M9ImZpbGwiLz4mI3hhOyA8cGF0aCBkPSJtMjkuMTggNDQuODI4Yy0wLjgyODEzIDAtMS41IDAuNjcxODgtMS41IDEuNXY1Ljg3MTFjMCAwLjgyODEyIDAuNjcxODcgMS41IDEuNSAxLjUgMC44MjgxMiAwIDEuNS0wLjY3MTg4IDEuNS0xLjV2LTUuODcxMWMwLTAuODI4MTItMC42Njc5Ny0xLjUtMS41LTEuNXoiIGNsYXNzPSJmaWxsIi8+JiN4YTsgPHBhdGggZD0ibTc0LjU5IDQ3LjcxOWgtMjQuNTljLTAuODI4MTIgMC0xLjUgMC42NzE4OC0xLjUgMS41czAuNjcxODggMS41IDEuNSAxLjVoMjQuNTljMC44MjgxMiAwIDEuNS0wLjY3MTg4IDEuNS0xLjVzLTAuNjY3OTctMS41LTEuNS0xLjV6IiBjbGFzcz0iZmlsbCIvPiYjeGE7IDxwYXRoIGQ9Im00MC42OTkgNDQuODI4Yy0wLjgyODEyIDAtMS41IDAuNjcxODgtMS41IDEuNXY1Ljg3MTFjMCAwLjgyODEyIDAuNjcxODggMS41IDEuNSAxLjVzMS41LTAuNjcxODggMS41LTEuNXYtNS44NzExYzAtMC44MjgxMi0wLjY3OTY5LTEuNS0xLjUtMS41eiIgY2xhc3M9ImZpbGwiLz48L3N2Zz4=;" parent="mcp-server-2" vertex="1">
          <mxGeometry x="13.455882755865058" y="16.71242650836235" width="26.229670072492723" height="26.575146983275303" as="geometry" />
        </mxCell>
        <mxCell id="UfiFrbzt1qPrqhalN9Oj-22" value="MCP Server 2" style="text;html=1;align=center;verticalAlign=middle;whiteSpace=wrap;rounded=0;fontColor=light-dark(#FFFFFF,#FFFFFF);fontSize=19;fontStyle=1" parent="mcp-server-2" vertex="1">
          <mxGeometry x="51.546926765226324" y="15" width="79.72544094982591" height="30" as="geometry" />
        </mxCell>
        <mxCell id="UfiFrbzt1qPrqhalN9Oj-23" value="" style="shape=image;verticalLabelPosition=bottom;labelBackgroundColor=default;verticalAlign=top;aspect=fixed;imageAspect=0;editableCssRules=.*;image=data:image/svg+xml,PHN2ZyB4bWxucz0iaHR0cDovL3d3dy53My5vcmcvMjAwMC9zdmciIGhlaWdodD0iOTYuMDAwNDA0MzU3OTEwMTYiIHdpZHRoPSI5Ny42MjcyMjc3ODMyMDMxMiIgdmlld0JveD0iMCAwIDk3LjYyNzIyNzc4MzIwMzEyIDk2LjAwMDQwNDM1NzkxMDE2Ij48cGF0aCBmaWxsPSIjZmZmIiBkPSJNNDguODU0IDBDMjEuODM5IDAgMCAyMiAwIDQ5LjIxN2MwIDIxLjc1NiAxMy45OTMgNDAuMTcyIDMzLjQwNSA0Ni42OSAyLjQyNy40OSAzLjMxNi0xLjA1OSAzLjMxNi0yLjM2MiAwLTEuMTQxLS4wOC01LjA1Mi0uMDgtOS4xMjctMTMuNTkgMi45MzQtMTYuNDItNS44NjctMTYuNDItNS44NjctMi4xODQtNS43MDQtNS40Mi03LjE3LTUuNDItNy4xNy00LjQ0OC0zLjAxNS4zMjQtMy4wMTUuMzI0LTMuMDE1IDQuOTM0LjMyNiA3LjUyMyA1LjA1MiA3LjUyMyA1LjA1MiA0LjM2NyA3LjQ5NiAxMS40MDQgNS4zNzggMTQuMjM1IDQuMDc0LjQwNC0zLjE3OCAxLjY5OS01LjM3OCAzLjA3NC02LjYtMTAuODM5LTEuMTQxLTIyLjI0My01LjM3OC0yMi4yNDMtMjQuMjgzIDAtNS4zNzggMS45NC05Ljc3OCA1LjAxNC0xMy4yLS40ODUtMS4yMjItMi4xODQtNi4yNzUuNDg2LTEzLjAzOCAwIDAgNC4xMjUtMS4zMDQgMTMuNDI2IDUuMDUyYTQ2Ljk3IDQ2Ljk3IDAgMCAxIDEyLjIxNC0xLjYzYzQuMTI1IDAgOC4zMy41NzEgMTIuMjEzIDEuNjMgOS4zMDItNi4zNTYgMTMuNDI3LTUuMDUyIDEzLjQyNy01LjA1MiAyLjY3IDYuNzYzLjk3IDExLjgxNi40ODUgMTMuMDM4IDMuMTU1IDMuNDIyIDUuMDE1IDcuODIyIDUuMDE1IDEzLjIgMCAxOC45MDUtMTEuNDA0IDIzLjA2LTIyLjMyNCAyNC4yODMgMS43OCAxLjU0OCAzLjMxNiA0LjQ4MSAzLjMxNiA5LjEyNiAwIDYuNi0uMDggMTEuODk3LS4wOCAxMy41MjYgMCAxLjMwNC44OSAyLjg1MyAzLjMxNiAyLjM2NCAxOS40MTItNi41MiAzMy40MDUtMjQuOTM1IDMzLjQwNS00Ni42OTFDOTcuNzA3IDIyIDc1Ljc4OCAwIDQ4Ljg1NCAweiIgY2xpcC1ydWxlPSJldmVub2RkIiBmaWxsLXJ1bGU9ImV2ZW5vZGQiLz48L3N2Zz4=;" parent="1" vertex="1">
          <mxGeometry x="1047" y="356" width="65.33" height="64" as="geometry" />
        </mxCell>
        <mxCell id="UfiFrbzt1qPrqhalN9Oj-24" style="edgeStyle=orthogonalEdgeStyle;rounded=0;orthogonalLoop=1;jettySize=auto;html=1;exitX=1;exitY=0.5;exitDx=0;exitDy=0;strokeColor=light-dark(#FFFFFF,#FFFFFF);strokeWidth=2;entryX=0;entryY=0.5;entryDx=0;entryDy=0;" parent="1" source="UfiFrbzt1qPrqhalN9Oj-3" target="UfiFrbzt1qPrqhalN9Oj-37" edge="1">
          <mxGeometry relative="1" as="geometry" />
        </mxCell>
        <mxCell id="UfiFrbzt1qPrqhalN9Oj-28" value="&amp;nbsp;Web APIs&amp;nbsp;" style="edgeLabel;html=1;align=center;verticalAlign=middle;resizable=0;points=[];labelBackgroundColor=light-dark(#7D7D7D,#000000);fontColor=light-dark(#FFFFFF,#FFFFFF);spacing=3;spacingLeft=-160;fontSize=20;" parent="UfiFrbzt1qPrqhalN9Oj-24" vertex="1" connectable="0">
          <mxGeometry x="0.0227" y="1" relative="1" as="geometry">
            <mxPoint x="-2" as="offset" />
          </mxGeometry>
        </mxCell>
        <mxCell id="UfiFrbzt1qPrqhalN9Oj-25" value="" style="shape=image;verticalLabelPosition=bottom;labelBackgroundColor=default;verticalAlign=top;aspect=fixed;imageAspect=0;editableCssRules=.*;image=data:image/svg+xml,PHN2ZyB4bWxucz0iaHR0cDovL3d3dy53My5vcmcvMjAwMC9zdmciIHZpZXdCb3g9IjUuMDAwMDk0NDEzNzU3MzI0IDEzLjU0MjkwNDg1MzgyMDggODkuOTk5OTA4NDQ3MjY1NjIgNzIuOTA5OTg4NDAzMzIwMzEiIHZlcnNpb249IjEuMSIgd2lkdGg9Ijg5Ljk5OTkwODQ0NzI2NTYyIiBoZWlnaHQ9IjcyLjkwOTk4ODQwMzMyMDMxIj4mI3hhOyAgPHN0eWxlPi5maWxsIHsgZmlsbDogcmdiKDI1NSwgMTY4LCAwKTsgfSA8L3N0eWxlPiYjeGE7IDxwYXRoIGQ9Im05NSAyNC45MXYzOC4xMjljMCAxLjE5MTQtMC45Njg3NSAyLjE2MDItMi4xNjggMi4xNjAyaC01LjM5ODR2LTI5LjY2OGMwLTIuODgyOC0yLjM0MzgtNS4yMjY2LTUuMjI2Ni01LjIyNjZoLTMxLjA5NGwtMy4wODU5LTYuMjczNGMtMC44NjcxOS0xLjc3MzQtMi43MTA5LTIuOTIxOS00LjY4MzYtMi45MjE5aC0xNy4xMDJ2LTUuMzk4NGMwLTEuMjAzMSAwLjk3NjU2LTIuMTY4IDIuMTY4LTIuMTY4aDI1LjU1NWMwLjgyNDIyIDAgMS41NzgxIDAuNDY4NzUgMS45NDUzIDEuMjEwOWwzLjMzMiA2Ljc3MzRjMC4zNTU0NyAwLjc0MjE5IDEuMTA5NCAxLjIxMDkgMS45MzM2IDEuMjEwOWgzMS42NTJjMS4yMDMxIDAgMi4xNjggMC45Njg3NSAyLjE2OCAyLjE2OHptLTEyLjc5MyA4LjQ1MzFoLTMxLjY1MmMtMC44MjQyMiAwLTEuNTc4MS0wLjQ2ODc1LTEuOTQ1My0xLjIxMDlsLTMuMzIwMy02Ljc3MzRjLTAuMzY3MTktMC43NDIxOS0xLjEyMTEtMS4yMTA5LTEuOTQ1My0xLjIxMDloLTI1LjU1NWMtMS4xOTE0IDAtMi4xNjggMC45Njg3NS0yLjE2OCAyLjE2OHY1LjM5ODRoMTcuMTAyYzEuOTc2NiAwIDMuODA4NiAxLjE1MjMgNC42ODM2IDIuOTIxOWwzLjA3NDIgNi4yNzM0aDMxLjEwMmMyLjg4MjggMCA1LjIyNjYgMi4zNDM4IDUuMjI2NiA1LjIyNjZ2MjkuNjc2aDUuMzk4NGMxLjIwMzEgMCAyLjE2OC0wLjk3NjU2IDIuMTY4LTIuMTY4di0zOC4xMjljMC0xLjIwMzEtMC45Njg3NS0yLjE2OC0yLjE2OC0yLjE2OHptLTEwLjYyMSAxMC42MjFoLTMxLjY1MmMtMC44MjQyMiAwLTEuNTc4MS0wLjQ2ODc1LTEuOTQ1My0xLjIxMDlsLTMuMzIwMy02Ljc3MzRjLTAuMzY3MTktMC43MzQzOC0xLjEyMTEtMS4yMTA5LTEuOTQ1My0xLjIxMDloLTI1LjU1NWMtMS4yMDMxIDAtMi4xNjggMC45NzY1Ni0yLjE2OCAyLjE2OHY0Ny4zMjhjMCAxLjIwMzEgMC45Njg3NSAyLjE2OCAyLjE2OCAyLjE2OGg2NC40MThjMS4xOTE0IDAgMi4xNjgtMC45Njg3NSAyLjE2OC0yLjE2OHYtMzguMTI5YzAtMS4xOTE0LTAuOTc2NTYtMi4xNjgtMi4xNjgtMi4xNjh6IiBjbGFzcz0iZmlsbCIvPiYjeGE7PC9zdmc+;" parent="1" vertex="1">
          <mxGeometry x="575.165" y="242.625" width="65" height="52.75" as="geometry" />
        </mxCell>
        <mxCell id="UfiFrbzt1qPrqhalN9Oj-26" style="edgeStyle=orthogonalEdgeStyle;rounded=0;orthogonalLoop=1;jettySize=auto;html=1;exitX=1;exitY=0.5;exitDx=0;exitDy=0;strokeColor=light-dark(#FFFFFF,#FFFFFF);strokeWidth=2;" parent="1" source="UfiFrbzt1qPrqhalN9Oj-20" target="UfiFrbzt1qPrqhalN9Oj-25" edge="1">
          <mxGeometry relative="1" as="geometry">
            <mxPoint x="630" y="400" as="sourcePoint" />
            <mxPoint x="720" y="290" as="targetPoint" />
          </mxGeometry>
        </mxCell>
        <mxCell id="UfiFrbzt1qPrqhalN9Oj-30" value="&lt;font&gt;Internet&lt;/font&gt;" style="text;html=1;align=center;verticalAlign=middle;whiteSpace=wrap;rounded=1;fillColor=light-dark(#7d7d7d, #ededed);fontColor=#FFFFFF;fontSize=20;" parent="1" vertex="1">
          <mxGeometry x="850" y="5" width="150" height="30" as="geometry" />
        </mxCell>
        <object label="" id="mcp-server-3">
          <mxCell style="group" parent="1" vertex="1" connectable="0">
            <mxGeometry x="740" y="358" width="155.19" height="60" as="geometry" />
          </mxCell>
        </object>
        <mxCell id="UfiFrbzt1qPrqhalN9Oj-32" value="" style="rounded=1;whiteSpace=wrap;html=1;fillColor=#4798CA;strokeColor=none;opacity=40;" parent="mcp-server-3" vertex="1">
          <mxGeometry width="155.19" height="60" as="geometry" />
        </mxCell>
        <mxCell id="UfiFrbzt1qPrqhalN9Oj-33" value="" style="shape=image;editableCssRules=.*;verticalLabelPosition=bottom;labelBackgroundColor=default;verticalAlign=top;aspect=fixed;imageAspect=0;editableCssRules=.*;image=data:image/svg+xml,PHN2ZyB4bWxucz0iaHR0cDovL3d3dy53My5vcmcvMjAwMC9zdmciIHZpZXdCb3g9IjEyLjY0NzU5NzMxMjkyNzI0NiAxMi4xNzkyOTc0NDcyMDQ1OSA3NC43MTE0MTA1MjI0NjA5NCA3NS42MjEwMDIxOTcyNjU2MiIgdmVyc2lvbj0iMS4xIiB3aWR0aD0iNzQuNzExNDEwNTIyNDYwOTQiIGhlaWdodD0iNzUuNjIxMDAyMTk3MjY1NjIiPiYjeGE7ICA8c3R5bGU+LmZpbGwgeyBmaWxsOiByZ2IoOTEsIDE5NCwgMjU1KTsgfSA8L3N0eWxlPiYjeGE7IDxwYXRoIGQ9Im04Ny4zNTkgMzIuMTIxdi0xMy4yNjJjMC0zLjY5MTQtMy02LjY3OTctNi42Nzk3LTYuNjc5N2gtNjEuMzUyYy0zLjY3OTcgMC02LjY3OTcgMy02LjY3OTcgNi42Nzk3djEzLjI1YzAgMi4xNDA2IDEuMDE5NSA0LjA1MDggMi41ODk4IDUuMjY5NS0xLjU3MDMgMS4yMTg4LTIuNTg5OCAzLjEyODktMi41ODk4IDUuMjY5NXYxMy4yNWMwIDMuNjkxNCAzIDYuNjc5NyA2LjY3OTcgNi42Nzk3aDI5LjE3MnY3LjA3MDNjLTMuODM5OCAwLjY0MDYyLTYuODcxMSAzLjY3MTktNy41MTE3IDcuNTExN2gtMjIuNTY2Yy0wLjgyODEyIDAtMS41IDAuNjcxODgtMS41IDEuNXMwLjY3MTg4IDEuNSAxLjUgMS41aDIyLjU3YzAuNzE4NzUgNC4zMjgxIDQuNDgwNSA3LjY0MDYgOS4wMTE3IDcuNjQwNnM4LjI4OTEtMy4zMDg2IDkuMDExNy03LjY0MDZoMjIuNTc4YzAuODI4MTIgMCAxLjUtMC42NzE4OCAxLjUtMS41cy0wLjY3MTg4LTEuNS0xLjUtMS41aC0yMi41ODJjLTAuNjQwNjItMy44Mzk4LTMuNjcxOS02Ljg3MTEtNy41MTE3LTcuNTExN3YtNy4wNDY5aDI5LjE4YzMuNjc5NyAwIDYuNjc5Ny0zIDYuNjc5Ny02LjY3OTd2LTEzLjI1YzAtMi4xNDA2LTEuMDE5NS00LjA1MDgtMi41ODk4LTUuMjY5NSAxLjU3MDMtMS4yMzA1IDIuNTg5OC0zLjE0MDYgMi41ODk4LTUuMjgxMnptLTMxLjIxOSA0Ni41NTljMCAzLjM5MDYtMi43NjE3IDYuMTQwNi02LjE0MDYgNi4xNDA2cy02LjE0MDYtMi43NjE3LTYuMTQwNi02LjE0MDZjMC0zLjM3ODkgMi43MzgzLTYuMTI4OSA2LjEyMTEtNi4xNDA2aDAuMDE5NTMxIDAuMDE5NTMxYzMuMzc4OSAwLjAxMTcxOSA2LjEyMTEgMi43NjE3IDYuMTIxMSA2LjE0MDZ6bTI4LjIxOS01OS44MnYxMy4yNWMwIDIuMDMxMi0xLjY0ODQgMy42Nzk3LTMuNjc5NyAzLjY3OTdoLTAuNjk5MjJ2LTIwLjYwOWgwLjY5OTIyYzIuMDMxMiAwIDMuNjc5NyAxLjY0ODQgMy42Nzk3IDMuNjc5N3ptLTYxLjMyOCAxNi45NDF2LTIwLjYyMWg1My45NDFsLTAuMDAzOTA2IDIwLjYyMXptLTcuMzkwNi0xNi45NDFjMC0yLjAzMTIgMS42NDg0LTMuNjc5NyAzLjY3OTctMy42Nzk3aDAuNjk5MjJ2MjAuNjIxaC0wLjY5OTIyYy0yLjAzMTIgMC0zLjY3OTctMS42NDg0LTMuNjc5Ny0zLjY3OTd6bTY4LjcxOSAzNy4wNjJjMCAyLjAzMTItMS42NDg0IDMuNjc5Ny0zLjY3OTcgMy42Nzk3aC02MS4zNTJjLTIuMDMxMiAwLTMuNjc5Ny0xLjY0ODQtMy42Nzk3LTMuNjc5N3YtMTMuMjVjMC0yLjAzMTIgMS42NDg0LTMuNjc5NyAzLjY3OTctMy42Nzk3aDYxLjM1MmMyLjAzMTIgMCAzLjY3OTcgMS42NDg0IDMuNjc5NyAzLjY3OTd6IiBjbGFzcz0iZmlsbCIvPiYjeGE7IDxwYXRoIGQ9Im0zNy43NSAyMi41NTljLTAuODI4MTIgMC0xLjUgMC42NzE4OC0xLjUgMS41djMuOTEwMmMwIDAuODI4MTIgMC42NzE4OCAxLjUgMS41IDEuNXMxLjUtMC42NzE4OCAxLjUtMS41di0zLjkxMDJjMC0wLjgyODEyLTAuNjcxODgtMS41LTEuNS0xLjV6IiBjbGFzcz0iZmlsbCIvPiYjeGE7IDxwYXRoIGQ9Im00NC43MyAyMi41NTljLTAuODI4MTIgMC0xLjUgMC42NzE4OC0xLjUgMS41djMuOTEwMmMwIDAuODI4MTIgMC42NzE4OCAxLjUgMS41IDEuNXMxLjUtMC42NzE4OCAxLjUtMS41di0zLjkxMDJjMC0wLjgyODEyLTAuNjcxODgtMS41LTEuNS0xLjV6IiBjbGFzcz0iZmlsbCIvPiYjeGE7IDxwYXRoIGQ9Im02Ni4xMjkgMjQuNTJoLTE1LjQxOGMtMC44MjgxMyAwLTEuNSAwLjY3MTg4LTEuNSAxLjVzMC42NzE4NyAxLjUgMS41IDEuNWgxNS40MjJjMC44MjgxMyAwIDEuNS0wLjY3MTg4IDEuNS0xLjUtMC4wMDM5MDYtMC44MjgxMi0wLjY3MTg3LTEuNS0xLjUwMzktMS41eiIgY2xhc3M9ImZpbGwiLz4mI3hhOyA8cGF0aCBkPSJtMjkuMTggNDQuODI4Yy0wLjgyODEzIDAtMS41IDAuNjcxODgtMS41IDEuNXY1Ljg3MTFjMCAwLjgyODEyIDAuNjcxODcgMS41IDEuNSAxLjUgMC44MjgxMiAwIDEuNS0wLjY3MTg4IDEuNS0xLjV2LTUuODcxMWMwLTAuODI4MTItMC42Njc5Ny0xLjUtMS41LTEuNXoiIGNsYXNzPSJmaWxsIi8+JiN4YTsgPHBhdGggZD0ibTc0LjU5IDQ3LjcxOWgtMjQuNTljLTAuODI4MTIgMC0xLjUgMC42NzE4OC0xLjUgMS41czAuNjcxODggMS41IDEuNSAxLjVoMjQuNTljMC44MjgxMiAwIDEuNS0wLjY3MTg4IDEuNS0xLjVzLTAuNjY3OTctMS41LTEuNS0xLjV6IiBjbGFzcz0iZmlsbCIvPiYjeGE7IDxwYXRoIGQ9Im00MC42OTkgNDQuODI4Yy0wLjgyODEyIDAtMS41IDAuNjcxODgtMS41IDEuNXY1Ljg3MTFjMCAwLjgyODEyIDAuNjcxODggMS41IDEuNSAxLjVzMS41LTAuNjcxODggMS41LTEuNXYtNS44NzExYzAtMC44MjgxMi0wLjY3OTY5LTEuNS0xLjUtMS41eiIgY2xhc3M9ImZpbGwiLz48L3N2Zz4=;" parent="mcp-server-3" vertex="1">
          <mxGeometry x="13.455882755865058" y="16.71242650836235" width="26.229670072492723" height="26.575146983275303" as="geometry" />
        </mxCell>
        <mxCell id="UfiFrbzt1qPrqhalN9Oj-34" value="MCP Server 3" style="text;html=1;align=center;verticalAlign=middle;whiteSpace=wrap;rounded=0;fontColor=light-dark(#FFFFFF,#FFFFFF);fontSize=19;fontStyle=1" parent="mcp-server-3" vertex="1">
          <mxGeometry x="51.546926765226324" y="15" width="79.72544094982591" height="30" as="geometry" />
        </mxCell>
        <mxCell id="UfiFrbzt1qPrqhalN9Oj-36" style="edgeStyle=orthogonalEdgeStyle;rounded=0;orthogonalLoop=1;jettySize=auto;html=1;exitX=1;exitY=0.5;exitDx=0;exitDy=0;strokeColor=light-dark(#FFFFFF,#FFFFFF);strokeWidth=2;entryX=0;entryY=0.5;entryDx=0;entryDy=0;" parent="1" source="UfiFrbzt1qPrqhalN9Oj-32" target="UfiFrbzt1qPrqhalN9Oj-23" edge="1">
          <mxGeometry relative="1" as="geometry">
            <mxPoint x="770" y="290" as="sourcePoint" />
            <mxPoint x="819" y="290" as="targetPoint" />
          </mxGeometry>
        </mxCell>
        <mxCell id="UfiFrbzt1qPrqhalN9Oj-37" value="" style="shape=image;verticalLabelPosition=bottom;labelBackgroundColor=default;verticalAlign=top;aspect=fixed;imageAspect=0;editableCssRules=.*;image=data:image/svg+xml,PHN2ZyB4bWxucz0iaHR0cDovL3d3dy53My5vcmcvMjAwMC9zdmciIGhlaWdodD0iMTI1LjU5OTk5ODQ3NDEyMTEiIHdpZHRoPSIxMjUuNjk5OTk2OTQ4MjQyMTkiIHZpZXdCb3g9IjAuNjk5OTk5OTg4MDc5MDcxIDAuNjAwMDAwMDIzODQxODU3OSAxMjUuNjk5OTk2OTQ4MjQyMTkgMTI1LjU5OTk5ODQ3NDEyMTEiPiYjeGE7ICA8cGF0aCBmaWxsPSIjRTAxRTVBIiBkPSJNMjcuMiA4MGMwIDcuMy01LjkgMTMuMi0xMy4yIDEzLjJDNi43IDkzLjIuOCA4Ny4zLjggODBjMC03LjMgNS45LTEzLjIgMTMuMi0xMy4yaDEzLjJWODB6bTYuNiAwYzAtNy4zIDUuOS0xMy4yIDEzLjItMTMuMiA3LjMgMCAxMy4yIDUuOSAxMy4yIDEzLjJ2MzNjMCA3LjMtNS45IDEzLjItMTMuMiAxMy4yLTcuMyAwLTEzLjItNS45LTEzLjItMTMuMlY4MHoiLz4mI3hhOyAgPHBhdGggZmlsbD0iIzM2QzVGMCIgZD0iTTQ3IDI3Yy03LjMgMC0xMy4yLTUuOS0xMy4yLTEzLjJDMzMuOCA2LjUgMzkuNy42IDQ3IC42YzcuMyAwIDEzLjIgNS45IDEzLjIgMTMuMlYyN0g0N3ptMCA2LjdjNy4zIDAgMTMuMiA1LjkgMTMuMiAxMy4yIDAgNy4zLTUuOSAxMy4yLTEzLjIgMTMuMkgxMy45QzYuNiA2MC4xLjcgNTQuMi43IDQ2LjljMC03LjMgNS45LTEzLjIgMTMuMi0xMy4ySDQ3eiIvPiYjeGE7ICA8cGF0aCBmaWxsPSIjMkVCNjdEIiBkPSJNOTkuOSA0Ni45YzAtNy4zIDUuOS0xMy4yIDEzLjItMTMuMiA3LjMgMCAxMy4yIDUuOSAxMy4yIDEzLjIgMCA3LjMtNS45IDEzLjItMTMuMiAxMy4ySDk5LjlWNDYuOXptLTYuNiAwYzAgNy4zLTUuOSAxMy4yLTEzLjIgMTMuMi03LjMgMC0xMy4yLTUuOS0xMy4yLTEzLjJWMTMuOEM2Ni45IDYuNSA3Mi44LjYgODAuMS42YzcuMyAwIDEzLjIgNS45IDEzLjIgMTMuMnYzMy4xeiIvPiYjeGE7ICA8cGF0aCBmaWxsPSIjRUNCMjJFIiBkPSJNODAuMSA5OS44YzcuMyAwIDEzLjIgNS45IDEzLjIgMTMuMiAwIDcuMy01LjkgMTMuMi0xMy4yIDEzLjItNy4zIDAtMTMuMi01LjktMTMuMi0xMy4yVjk5LjhoMTMuMnptMC02LjZjLTcuMyAwLTEzLjItNS45LTEzLjItMTMuMiAwLTcuMyA1LjktMTMuMiAxMy4yLTEzLjJoMzMuMWM3LjMgMCAxMy4yIDUuOSAxMy4yIDEzLjIgMCA3LjMtNS45IDEzLjItMTMuMiAxMy4ySDgwLjF6Ii8+JiN4YTs8L3N2Zz4=;" parent="1" vertex="1">
          <mxGeometry x="1047" y="116.5" width="65" height="65" as="geometry" />
        </mxCell>
        <mxCell id="UfiFrbzt1qPrqhalN9Oj-38" value="" style="shape=image;verticalLabelPosition=bottom;labelBackgroundColor=default;verticalAlign=top;aspect=fixed;imageAspect=0;editableCssRules=.*;image=data:image/svg+xml,PHN2ZyB4bWxucz0iaHR0cDovL3d3dy53My5vcmcvMjAwMC9zdmciIGZpbGw9Im5vbmUiIHZpZXdCb3g9IjAuMjM3MDAwMDAzNDU3MDY5NCAwLjEzMTE3MDg4Mzc3NDc1NzM5IDEwMS42NjczMjc4ODA4NTkzOCAxMDAuODY4ODI3ODE5ODI0MjIiIG92ZXJmbG93PSJ2aXNpYmxlIiB3aWR0aD0iMTAxLjY2NzMyNzg4MDg1OTM4IiBoZWlnaHQ9IjEwMC44Njg4Mjc4MTk4MjQyMiI+JiN4YTsgIDxwYXRoIHN0eWxlPSJ0cmFuc2Zvcm0tb3JpZ2luOiA1MHB4IDUwcHg7IHRyYW5zZm9ybTogcm90YXRlKDMzMGRlZykgc2NhbGVZKDEuMTU2MDUpIHJvdGF0ZSgtMzMwZGVnKTsiIGZpbGw9IiNEOTc3NTciIGQ9Ik05Ni4wMDAwIDQwLjAwMDAgTDk5LjUwMDIgNDIuMDAwMCBMOTkuNTAwMiA0My41MDAwIEw5OC41MDAwIDQ3LjAwMDAgTDU2LjAwMDAgNTcuMDAwMCBMNTIuMDA0MCA0Ny4wNzA4IEw5Ni4wMDAwIDQwLjAwMDAgTTk2LjAwMDAgNDAuMDAwMCIvPiYjeGE7ICA8cGF0aCBzdHlsZT0idHJhbnNmb3JtLW9yaWdpbjogNTBweCA1MHB4OyB0cmFuc2Zvcm06IHJvdGF0ZSgzMDBkZWcpIHNjYWxlWSgxLjAyNjM4KSByb3RhdGUoLTMwMGRlZyk7IiBmaWxsPSIjRDk3NzU3IiBkPSJNODAuMTAzMiAxMC41OTAzIEw4NC45OTY4IDExLjYxNzEgTDg2LjI5NTggMTMuMjE3OSBMODcuNTM0NiAxNy4wNTQwIEw4Ny4wMjEzIDE5LjUwMDcgTDU4LjUwMDAgNTguNTAwMCBMNDkuMDAwMCA0OS4wMDAwIEw3NS4zMDA4IDE0LjQ4NzMgTDgwLjEwMzIgMTAuNTkwMyBNODAuMTAzMiAxMC41OTAzIi8+JiN4YTsgIDxwYXRoIHN0eWxlPSJ0cmFuc2Zvcm0tb3JpZ2luOiA1MHB4IDUwcHg7IHRyYW5zZm9ybTogcm90YXRlKDI3MGRlZykgc2NhbGVZKDAuOTg1KSByb3RhdGUoLTI3MGRlZyk7IiBmaWxsPSIjRDk3NzU3IiBkPSJNNTUuNTAwMiA0LjUwMDAgTDU4LjUwMDUgMi41MDAwIEw2MS4wMDAyIDMuNTAwMCBMNjMuNTAwMiA3LjAwMDAgTDU2LjY1MTEgNDguMTYyMCBMNTIuMDAwNSA0NS4wMDAwIEw1MC4wMDA1IDM5LjUwMDAgTDUzLjUwMDMgOC41MDAwIEw1NS41MDAyIDQuNTAwMCBNNTUuNTAwMiA0LjUwMDAiLz4mI3hhOyAgPHBhdGggc3R5bGU9InRyYW5zZm9ybS1vcmlnaW46IDUwcHggNTBweDsgdHJhbnNmb3JtOiByb3RhdGUoMjQwZGVnKSBzY2FsZVkoMS4wNDUpIHJvdGF0ZSgtMjQwZGVnKTsiIGZpbGw9IiNEOTc3NTciIGQ9Ik0yMy40MjUzIDUuMTU4OCBMMjYuNTA3NSAxLjIyMTcgTDI4LjUxNzUgMC43NjMyIEwzMi41MDYzIDEuMzQ1OCBMMzQuNDc0OCAyLjg4NjggTDQ4LjgyMDIgMzQuNjkwMiBMNTQuMDA4OSA0OS44MDA4IEw0Ny45Mzc4IDUzLjE3NjAgTDI0LjgwMDkgMTEuMTg4NiBMMjMuNDI1MyA1LjE1ODggTTIzLjQyNTMgNS4xNTg4Ii8+JiN4YTsgIDxwYXRoIHN0eWxlPSJ0cmFuc2Zvcm0tb3JpZ2luOiA1MHB4IDUwcHg7IHRyYW5zZm9ybTogcm90YXRlKDIxMGRlZykgc2NhbGVZKDEuMDE1KSByb3RhdGUoLTIxMGRlZyk7IiBmaWxsPSIjRDk3NzU3IiBkPSJNOC40OTkwIDI3LjAwMTkgTDcuNDk5OSAyMy4wMDAxIEwxMC41MDAzIDE5LjUwMDEgTDE0LjAwMDMgMjAuMDAwMSBMMTUuMDAwMyAyMC4wMDAxIEwzNi4wMDAwIDM1LjUwMDAgTDQyLjUwMDAgNDAuNTAwMCBMNTEuNTAwMCA0Ny41MDAwIEw0Ni41MDAwIDU2LjAwMDAgTDQyLjAwMDIgNTIuNTAwMCBMMzkuMDAwMSA0OS41MDAwIEwxMC4wMDAwIDI5LjAwMDEgTDguNDk5MCAyNy4wMDE5IE04LjQ5OTAgMjcuMDAxOSIvPiYjeGE7ICA8cGF0aCBzdHlsZT0idHJhbnNmb3JtLW9yaWdpbjogNTBweCA1MHB4OyB0cmFuc2Zvcm06IHJvdGF0ZSgxODBkZWcpIHNjYWxlWSgwLjkyNSkgcm90YXRlKC0xODBkZWcpOyIgZmlsbD0iI0Q5Nzc1NyIgZD0iTTIuNTAwMyA1My4wMDAwIEwwLjIzNzAgNTAuNTAwMCBMMC4yMzczIDQ4LjI3NTkgTDIuNTAwMyA0Ny41MDAwIEwyOC4wMDAwIDQ5LjAwMDAgTDUzLjAwMDAgNTEuMDAwMCBMNTIuMTg4NSA1NS45NzgyIEw0LjUwMDAgNTMuNTAwMCBMMi41MDAzIDUzLjAwMDAgTTIuNTAwMyA1My4wMDAwIi8+JiN4YTsgIDxwYXRoIHN0eWxlPSJ0cmFuc2Zvcm0tb3JpZ2luOiA1MHB4IDUwcHg7IHRyYW5zZm9ybTogcm90YXRlKDE1MGRlZykgc2NhbGVZKDAuOTQpIHJvdGF0ZSgtMTUwZGVnKTsiIGZpbGw9IiNEOTc3NTciIGQ9Ik0xNy41MDAyIDc5LjAyNjQgTDEyLjUwMDUgNzkuMDI2NCBMMTAuNTEyNCA3Ni43MzY5IEwxMC41MTI0IDc0LjAwMDAgTDE5LjAwMDUgNjguMDAwMCBMNTMuNTA4MiA0Ni4wMzM3IEw1Ny4wMDA1IDUyLjAwMDAgTDE3LjUwMDIgNzkuMDI2NCBNMTcuNTAwMiA3OS4wMjY0Ii8+JiN4YTsgIDxwYXRoIHN0eWxlPSJ0cmFuc2Zvcm0tb3JpZ2luOiA1MHB4IDUwcHg7IHRyYW5zZm9ybTogcm90YXRlKDEyMGRlZykgc2NhbGVZKDEuMDkpIHJvdGF0ZSgtMTIwZGVnKTsiIGZpbGw9IiNEOTc3NTciIGQ9Ik0yNy4wMDA0IDkyLjk5OTkgTDI1LjAwMDMgOTMuNDk5OSBMMjIuMDAwMyA5MS45OTk5IEwyMi41MDA0IDg5LjQ5OTkgTDUyLjAwMDMgNTAuNTAwMCBMNTYuMDAwNCA1NS45OTk5IEwzNC4wMDAzIDg1LjAwMDAgTDI3LjAwMDQgOTIuOTk5OSBNMjcuMDAwNCA5Mi45OTk5Ii8+JiN4YTsgIDxwYXRoIHN0eWxlPSJ0cmFuc2Zvcm0tb3JpZ2luOiA1MHB4IDUwcHg7IHRyYW5zZm9ybTogcm90YXRlKDkwZGVnKSBzY2FsZVkoMS4xMTIyOSkgcm90YXRlKC05MGRlZyk7IiBmaWxsPSIjRDk3NzU3IiBkPSJNNTEuOTk5OCA5OC4wMDAwIEw1MC41MDAyIDEwMC4wMDAwIEw0Ny41MDAyIDEwMS4wMDAwIEw0NS4wMDAxIDk5LjAwMDAgTDQzLjUwMDAgOTYuMDAwMCBMNTEuMDAwMyA1NS40OTk5IEw1NS41MDAxIDU1Ljk5OTkgTDUxLjk5OTggOTguMDAwMCBNNTEuOTk5OCA5OC4wMDAwIi8+JiN4YTsgIDxwYXRoIHN0eWxlPSJ0cmFuc2Zvcm0tb3JpZ2luOiA1MHB4IDUwcHg7IHRyYW5zZm9ybTogcm90YXRlKDYwZGVnKSBzY2FsZVkoMS4xMzM5NSkgcm90YXRlKC02MGRlZyk7IiBmaWxsPSIjRDk3NzU3IiBkPSJNNzcuNTAwNyA4Ni45OTk3IEw3Ny41MDA3IDkwLjk5OTcgTDc3LjAwMDYgOTIuNDk5NyBMNzUuMDAwNCA5My40OTk3IEw3MS41MDA2IDkzLjAzMzkgTDQ3LjQ2NjkgNTcuMjY0MiBMNTYuOTk5OCA1MC4wMDAyIEw2NC45OTk0IDY0LjUwMDQgTDY1Ljc1MDcgNjkuNzQ5NyBMNzcuNTAwNyA4Ni45OTk3IE03Ny41MDA3IDg2Ljk5OTciLz4mI3hhOyAgPHBhdGggc3R5bGU9InRyYW5zZm9ybS1vcmlnaW46IDUwcHggNTBweDsgdHJhbnNmb3JtOiByb3RhdGUoMzBkZWcpIHNjYWxlWSgxLjE0MDYyKSByb3RhdGUoLTMwZGVnKTsiIGZpbGw9IiNEOTc3NTciIGQ9Ik04OS4wMDA4IDgwLjk5OTEgTDg5LjUwMDggODMuNDk5MSBMODguMDAwOCA4NS40OTkxIEw4Ni41MDA3IDg0Ljk5OTEgTDc4LjAwMDcgNzguOTk5MSBMNjUuMDAwNyA2Ny40OTkxIEw1NS4wMDA3IDYwLjQ5OTEgTDU4LjAwMDAgNTEuMDAwMCBMNjIuOTk5OSA1NC4wMDAxIEw2Ni4wMDA3IDU5LjQ5OTEgTDg5LjAwMDggODAuOTk5MSBNODkuMDAwOCA4MC45OTkxIi8+JiN4YTsgIDxwYXRoIHN0eWxlPSJ0cmFuc2Zvcm0tb3JpZ2luOiA1MHB4IDUwcHg7IHRyYW5zZm9ybTogcm90YXRlKDBkZWcpIHNjYWxlWSgxLjExNzcxKSByb3RhdGUoMGRlZyk7IiBmaWxsPSIjRDk3NzU3IiBkPSJNODIuNTAwMyA1NS41MDAwIEw5NS4wMDAzIDU2LjUwMDAgTDk4LjAwMDMgNTguNTAwMCBMMTAwLjAwMDAgNjEuNTAwMCBMMTAwLjAwMDAgNjMuNjU4NyBMOTQuNTAwMyA2Ni4wMDAwIEw2Ni41MDA1IDU5LjAwMDAgTDU1LjAwMDMgNTguNTAwMCBMNTguMDAwMCA0OC4wMDAwIEw2Ni4wMDA1IDU0LjAwMDAgTDgyLjUwMDMgNTUuNTAwMCBNODIuNTAwMyA1NS41MDAwIi8+JiN4YTs8L3N2Zz4=;" parent="1" vertex="1">
          <mxGeometry x="208" y="42.82" width="65" height="64.36" as="geometry" />
        </mxCell>
        <mxCell id="UfiFrbzt1qPrqhalN9Oj-44" value="" style="group" parent="1" vertex="1" connectable="0">
          <mxGeometry x="66.15499999999997" y="119" width="155.19000000000005" height="60" as="geometry" />
        </mxCell>
        <mxCell id="UfiFrbzt1qPrqhalN9Oj-41" value="" style="rounded=1;whiteSpace=wrap;html=1;fillColor=#4798CA;strokeColor=none;opacity=40;" parent="UfiFrbzt1qPrqhalN9Oj-44" vertex="1">
          <mxGeometry width="155.19" height="60" as="geometry" />
        </mxCell>
        <mxCell id="UfiFrbzt1qPrqhalN9Oj-43" value="MCP Client 1" style="text;html=1;align=center;verticalAlign=middle;whiteSpace=wrap;rounded=0;fontColor=light-dark(#FFFFFF,#FFFFFF);fontSize=19;fontStyle=1" parent="UfiFrbzt1qPrqhalN9Oj-44" vertex="1">
          <mxGeometry x="50.54692676522632" y="15" width="79.72544094982591" height="30" as="geometry" />
        </mxCell>
        <mxCell id="UfiFrbzt1qPrqhalN9Oj-39" value="" style="shape=image;verticalLabelPosition=bottom;labelBackgroundColor=default;verticalAlign=top;aspect=fixed;imageAspect=0;editableCssRules=.*;image=data:image/svg+xml,PHN2ZyB4bWxucz0iaHR0cDovL3d3dy53My5vcmcvMjAwMC9zdmciIHk9IjBweCIgeD0iMHB4IiB2aWV3Qm94PSI2IDEyIDg4IDc4IiBkYXRhLW5hbWU9IldhcnN0d2EgMSIgd2lkdGg9Ijg4IiBoZWlnaHQ9Ijc4Ij4mI3hhOyAgPHN0eWxlPi5maWxsIHsgZmlsbDogcmdiKDkxLCAxOTQsIDI1NSk7IH0gPC9zdHlsZT4mI3hhOzxwYXRoIGQ9Ik04NC44MywyNEgxOFYxMkg2djRoOFYzMkg2VjUyaDhWOTBoNFY4MEg0OHY2LjgzTDUxLjE3LDkwSDkwLjgzTDk0LDg2LjgzVjMzLjE3Wk0xNCw0OEgxMFYzNmg0Wk05MCw4NS4xN2wtLjgzLjgzSDUyLjgzTDUyLDg1LjE3Vjc2SDE4VjI4SDgzLjE3TDkwLDM0LjgzWiIgY2xhc3M9ImZpbGwiLz4mI3hhOzxwYXRoIGQ9Ik0yNS4xNywzNCwyMiwzNy4xN1Y2Ni44M0wyNS4xNyw3MEgzOC44M0w0Miw2Ni44M1YzNy4xN0wzOC44MywzNFpNMzgsNjUuMTdsLS44My44M0gyNi44M0wyNiw2NS4xN1YzOC44M2wuODMtLjgzSDM3LjE3bC44My44M1oiIGNsYXNzPSJmaWxsIi8+JiN4YTs8cmVjdCBoZWlnaHQ9IjQiIHdpZHRoPSIxMiIgeT0iMzgiIHg9IjQ2IiBjbGFzcz0iZmlsbCIvPiYjeGE7PHJlY3QgaGVpZ2h0PSI0IiB3aWR0aD0iMTIiIHk9IjQ2IiB4PSI0NiIgY2xhc3M9ImZpbGwiLz4mI3hhOzxyZWN0IGhlaWdodD0iNCIgd2lkdGg9IjEyIiB5PSI1NCIgeD0iNDYiIGNsYXNzPSJmaWxsIi8+JiN4YTs8cmVjdCBoZWlnaHQ9IjQiIHdpZHRoPSIxMiIgeT0iNjIiIHg9IjQ2IiBjbGFzcz0iZmlsbCIvPiYjeGE7PHJlY3QgaGVpZ2h0PSI0IiB3aWR0aD0iMzAiIHk9Ijc2IiB4PSI1NiIgY2xhc3M9ImZpbGwiLz4mI3hhOzxyZWN0IGhlaWdodD0iNCIgd2lkdGg9IjgiIHk9IjM4IiB4PSI2MiIgY2xhc3M9ImZpbGwiLz4mI3hhOzxyZWN0IGhlaWdodD0iNCIgd2lkdGg9IjgiIHk9IjM4IiB4PSI3NCIgY2xhc3M9ImZpbGwiLz4mI3hhOzxyZWN0IGhlaWdodD0iNCIgd2lkdGg9IjgiIHk9IjQ2IiB4PSI2MiIgY2xhc3M9ImZpbGwiLz4mI3hhOzxyZWN0IGhlaWdodD0iNCIgd2lkdGg9IjgiIHk9IjQ2IiB4PSI3NCIgY2xhc3M9ImZpbGwiLz4mI3hhOzxwYXRoIGQ9Ik04Miw1NEg2MlY3MEg4MlpNNzgsNjZINjZWNThINzhaIiBjbGFzcz0iZmlsbCIvPiYjeGE7PC9zdmc+;" parent="UfiFrbzt1qPrqhalN9Oj-44" vertex="1">
          <mxGeometry x="13.460000000000036" y="16.710000000000036" width="26.23" height="23.25" as="geometry" />
        </mxCell>
        <mxCell id="UfiFrbzt1qPrqhalN9Oj-45" style="edgeStyle=orthogonalEdgeStyle;rounded=0;orthogonalLoop=1;jettySize=auto;html=1;exitX=1;exitY=0.5;exitDx=0;exitDy=0;strokeColor=light-dark(#FFFFFF,#FFFFFF);strokeWidth=2;entryX=0;entryY=0.5;entryDx=0;entryDy=0;" parent="1" source="UfiFrbzt1qPrqhalN9Oj-41" target="UfiFrbzt1qPrqhalN9Oj-3" edge="1">
          <mxGeometry relative="1" as="geometry">
            <mxPoint x="400" y="400" as="sourcePoint" />
            <mxPoint x="449" y="400" as="targetPoint" />
          </mxGeometry>
        </mxCell>
        <mxCell id="UfiFrbzt1qPrqhalN9Oj-63" value="STDIO" style="edgeLabel;html=1;align=center;verticalAlign=middle;resizable=0;points=[];spacing=0;fontSize=18;" parent="UfiFrbzt1qPrqhalN9Oj-45" vertex="1" connectable="0">
          <mxGeometry x="0.0034" relative="1" as="geometry">
            <mxPoint x="1" as="offset" />
          </mxGeometry>
        </mxCell>
        <mxCell id="UfiFrbzt1qPrqhalN9Oj-46" value="" style="group" parent="1" vertex="1" connectable="0">
          <mxGeometry x="66.15499999999997" y="239" width="155.19000000000005" height="60" as="geometry" />
        </mxCell>
        <mxCell id="UfiFrbzt1qPrqhalN9Oj-47" value="" style="rounded=1;whiteSpace=wrap;html=1;fillColor=#4798CA;strokeColor=none;opacity=40;" parent="UfiFrbzt1qPrqhalN9Oj-46" vertex="1">
          <mxGeometry width="155.19" height="60" as="geometry" />
        </mxCell>
        <mxCell id="UfiFrbzt1qPrqhalN9Oj-48" value="MCP Client 2" style="text;html=1;align=center;verticalAlign=middle;whiteSpace=wrap;rounded=0;fontColor=light-dark(#FFFFFF,#FFFFFF);fontSize=19;fontStyle=1" parent="UfiFrbzt1qPrqhalN9Oj-46" vertex="1">
          <mxGeometry x="50.54692676522632" y="15" width="79.72544094982591" height="30" as="geometry" />
        </mxCell>
        <mxCell id="UfiFrbzt1qPrqhalN9Oj-49" value="" style="shape=image;verticalLabelPosition=bottom;labelBackgroundColor=default;verticalAlign=top;aspect=fixed;imageAspect=0;editableCssRules=.*;image=data:image/svg+xml,PHN2ZyB4bWxucz0iaHR0cDovL3d3dy53My5vcmcvMjAwMC9zdmciIHk9IjBweCIgeD0iMHB4IiB2aWV3Qm94PSI2IDEyIDg4IDc4IiBkYXRhLW5hbWU9IldhcnN0d2EgMSIgd2lkdGg9Ijg4IiBoZWlnaHQ9Ijc4Ij4mI3hhOyAgPHN0eWxlPi5maWxsIHsgZmlsbDogcmdiKDkxLCAxOTQsIDI1NSk7IH0gPC9zdHlsZT4mI3hhOzxwYXRoIGQ9Ik04NC44MywyNEgxOFYxMkg2djRoOFYzMkg2VjUyaDhWOTBoNFY4MEg0OHY2LjgzTDUxLjE3LDkwSDkwLjgzTDk0LDg2LjgzVjMzLjE3Wk0xNCw0OEgxMFYzNmg0Wk05MCw4NS4xN2wtLjgzLjgzSDUyLjgzTDUyLDg1LjE3Vjc2SDE4VjI4SDgzLjE3TDkwLDM0LjgzWiIgY2xhc3M9ImZpbGwiLz4mI3hhOzxwYXRoIGQ9Ik0yNS4xNywzNCwyMiwzNy4xN1Y2Ni44M0wyNS4xNyw3MEgzOC44M0w0Miw2Ni44M1YzNy4xN0wzOC44MywzNFpNMzgsNjUuMTdsLS44My44M0gyNi44M0wyNiw2NS4xN1YzOC44M2wuODMtLjgzSDM3LjE3bC44My44M1oiIGNsYXNzPSJmaWxsIi8+JiN4YTs8cmVjdCBoZWlnaHQ9IjQiIHdpZHRoPSIxMiIgeT0iMzgiIHg9IjQ2IiBjbGFzcz0iZmlsbCIvPiYjeGE7PHJlY3QgaGVpZ2h0PSI0IiB3aWR0aD0iMTIiIHk9IjQ2IiB4PSI0NiIgY2xhc3M9ImZpbGwiLz4mI3hhOzxyZWN0IGhlaWdodD0iNCIgd2lkdGg9IjEyIiB5PSI1NCIgeD0iNDYiIGNsYXNzPSJmaWxsIi8+JiN4YTs8cmVjdCBoZWlnaHQ9IjQiIHdpZHRoPSIxMiIgeT0iNjIiIHg9IjQ2IiBjbGFzcz0iZmlsbCIvPiYjeGE7PHJlY3QgaGVpZ2h0PSI0IiB3aWR0aD0iMzAiIHk9Ijc2IiB4PSI1NiIgY2xhc3M9ImZpbGwiLz4mI3hhOzxyZWN0IGhlaWdodD0iNCIgd2lkdGg9IjgiIHk9IjM4IiB4PSI2MiIgY2xhc3M9ImZpbGwiLz4mI3hhOzxyZWN0IGhlaWdodD0iNCIgd2lkdGg9IjgiIHk9IjM4IiB4PSI3NCIgY2xhc3M9ImZpbGwiLz4mI3hhOzxyZWN0IGhlaWdodD0iNCIgd2lkdGg9IjgiIHk9IjQ2IiB4PSI2MiIgY2xhc3M9ImZpbGwiLz4mI3hhOzxyZWN0IGhlaWdodD0iNCIgd2lkdGg9IjgiIHk9IjQ2IiB4PSI3NCIgY2xhc3M9ImZpbGwiLz4mI3hhOzxwYXRoIGQ9Ik04Miw1NEg2MlY3MEg4MlpNNzgsNjZINjZWNThINzhaIiBjbGFzcz0iZmlsbCIvPiYjeGE7PC9zdmc+;" parent="UfiFrbzt1qPrqhalN9Oj-46" vertex="1">
          <mxGeometry x="13.460000000000036" y="16.710000000000036" width="26.23" height="23.25" as="geometry" />
        </mxCell>
        <mxCell id="UfiFrbzt1qPrqhalN9Oj-50" value="" style="group" parent="1" vertex="1" connectable="0">
          <mxGeometry x="66.15499999999997" y="358" width="155.19000000000005" height="60" as="geometry" />
        </mxCell>
        <mxCell id="UfiFrbzt1qPrqhalN9Oj-51" value="" style="rounded=1;whiteSpace=wrap;html=1;fillColor=#4798CA;strokeColor=none;opacity=40;" parent="UfiFrbzt1qPrqhalN9Oj-50" vertex="1">
          <mxGeometry width="155.19" height="60" as="geometry" />
        </mxCell>
        <mxCell id="UfiFrbzt1qPrqhalN9Oj-52" value="MCP Client 3" style="text;html=1;align=center;verticalAlign=middle;whiteSpace=wrap;rounded=0;fontColor=light-dark(#FFFFFF,#FFFFFF);fontSize=19;fontStyle=1" parent="UfiFrbzt1qPrqhalN9Oj-50" vertex="1">
          <mxGeometry x="50.54692676522632" y="15" width="79.72544094982591" height="30" as="geometry" />
        </mxCell>
        <mxCell id="UfiFrbzt1qPrqhalN9Oj-53" value="" style="shape=image;verticalLabelPosition=bottom;labelBackgroundColor=default;verticalAlign=top;aspect=fixed;imageAspect=0;editableCssRules=.*;image=data:image/svg+xml,PHN2ZyB4bWxucz0iaHR0cDovL3d3dy53My5vcmcvMjAwMC9zdmciIHk9IjBweCIgeD0iMHB4IiB2aWV3Qm94PSI2IDEyIDg4IDc4IiBkYXRhLW5hbWU9IldhcnN0d2EgMSIgd2lkdGg9Ijg4IiBoZWlnaHQ9Ijc4Ij4mI3hhOyAgPHN0eWxlPi5maWxsIHsgZmlsbDogcmdiKDkxLCAxOTQsIDI1NSk7IH0gPC9zdHlsZT4mI3hhOzxwYXRoIGQ9Ik04NC44MywyNEgxOFYxMkg2djRoOFYzMkg2VjUyaDhWOTBoNFY4MEg0OHY2LjgzTDUxLjE3LDkwSDkwLjgzTDk0LDg2LjgzVjMzLjE3Wk0xNCw0OEgxMFYzNmg0Wk05MCw4NS4xN2wtLjgzLjgzSDUyLjgzTDUyLDg1LjE3Vjc2SDE4VjI4SDgzLjE3TDkwLDM0LjgzWiIgY2xhc3M9ImZpbGwiLz4mI3hhOzxwYXRoIGQ9Ik0yNS4xNywzNCwyMiwzNy4xN1Y2Ni44M0wyNS4xNyw3MEgzOC44M0w0Miw2Ni44M1YzNy4xN0wzOC44MywzNFpNMzgsNjUuMTdsLS44My44M0gyNi44M0wyNiw2NS4xN1YzOC44M2wuODMtLjgzSDM3LjE3bC44My44M1oiIGNsYXNzPSJmaWxsIi8+JiN4YTs8cmVjdCBoZWlnaHQ9IjQiIHdpZHRoPSIxMiIgeT0iMzgiIHg9IjQ2IiBjbGFzcz0iZmlsbCIvPiYjeGE7PHJlY3QgaGVpZ2h0PSI0IiB3aWR0aD0iMTIiIHk9IjQ2IiB4PSI0NiIgY2xhc3M9ImZpbGwiLz4mI3hhOzxyZWN0IGhlaWdodD0iNCIgd2lkdGg9IjEyIiB5PSI1NCIgeD0iNDYiIGNsYXNzPSJmaWxsIi8+JiN4YTs8cmVjdCBoZWlnaHQ9IjQiIHdpZHRoPSIxMiIgeT0iNjIiIHg9IjQ2IiBjbGFzcz0iZmlsbCIvPiYjeGE7PHJlY3QgaGVpZ2h0PSI0IiB3aWR0aD0iMzAiIHk9Ijc2IiB4PSI1NiIgY2xhc3M9ImZpbGwiLz4mI3hhOzxyZWN0IGhlaWdodD0iNCIgd2lkdGg9IjgiIHk9IjM4IiB4PSI2MiIgY2xhc3M9ImZpbGwiLz4mI3hhOzxyZWN0IGhlaWdodD0iNCIgd2lkdGg9IjgiIHk9IjM4IiB4PSI3NCIgY2xhc3M9ImZpbGwiLz4mI3hhOzxyZWN0IGhlaWdodD0iNCIgd2lkdGg9IjgiIHk9IjQ2IiB4PSI2MiIgY2xhc3M9ImZpbGwiLz4mI3hhOzxyZWN0IGhlaWdodD0iNCIgd2lkdGg9IjgiIHk9IjQ2IiB4PSI3NCIgY2xhc3M9ImZpbGwiLz4mI3hhOzxwYXRoIGQ9Ik04Miw1NEg2MlY3MEg4MlpNNzgsNjZINjZWNThINzhaIiBjbGFzcz0iZmlsbCIvPiYjeGE7PC9zdmc+;" parent="UfiFrbzt1qPrqhalN9Oj-50" vertex="1">
          <mxGeometry x="13.460000000000036" y="16.710000000000036" width="26.23" height="23.25" as="geometry" />
        </mxCell>
        <mxCell id="UfiFrbzt1qPrqhalN9Oj-55" style="edgeStyle=orthogonalEdgeStyle;rounded=0;orthogonalLoop=1;jettySize=auto;html=1;exitX=1;exitY=0.5;exitDx=0;exitDy=0;strokeColor=light-dark(#FFFFFF,#FFFFFF);strokeWidth=2;entryX=0;entryY=0.5;entryDx=0;entryDy=0;" parent="1" source="UfiFrbzt1qPrqhalN9Oj-47" target="UfiFrbzt1qPrqhalN9Oj-20" edge="1">
          <mxGeometry relative="1" as="geometry">
            <mxPoint x="310" y="390" as="sourcePoint" />
            <mxPoint x="320" y="580" as="targetPoint" />
          </mxGeometry>
        </mxCell>
        <mxCell id="UfiFrbzt1qPrqhalN9Oj-64" value="STDIO" style="edgeLabel;html=1;align=center;verticalAlign=middle;resizable=0;points=[];fontSize=18;" parent="UfiFrbzt1qPrqhalN9Oj-55" vertex="1" connectable="0">
          <mxGeometry x="-0.0869" y="-1" relative="1" as="geometry">
            <mxPoint x="6" y="-1" as="offset" />
          </mxGeometry>
        </mxCell>
        <mxCell id="UfiFrbzt1qPrqhalN9Oj-56" style="edgeStyle=orthogonalEdgeStyle;rounded=0;orthogonalLoop=1;jettySize=auto;html=1;exitX=1;exitY=0.5;exitDx=0;exitDy=0;strokeColor=light-dark(#FFFFFF,#FFFFFF);strokeWidth=2;entryX=0;entryY=0.5;entryDx=0;entryDy=0;" parent="1" source="UfiFrbzt1qPrqhalN9Oj-51" target="UfiFrbzt1qPrqhalN9Oj-32" edge="1">
          <mxGeometry relative="1" as="geometry">
            <mxPoint x="300" y="390" as="sourcePoint" />
            <mxPoint x="405" y="390" as="targetPoint" />
          </mxGeometry>
        </mxCell>
        <mxCell id="UfiFrbzt1qPrqhalN9Oj-65" value="SSE/HTTP" style="edgeLabel;html=1;align=center;verticalAlign=middle;resizable=0;points=[];fontSize=18;" parent="UfiFrbzt1qPrqhalN9Oj-56" vertex="1" connectable="0">
          <mxGeometry x="-0.8004" y="-1" relative="1" as="geometry">
            <mxPoint x="18" as="offset" />
          </mxGeometry>
        </mxCell>
        <mxCell id="UfiFrbzt1qPrqhalN9Oj-57" value=" LLM " style="shape=image;verticalLabelPosition=bottom;labelBackgroundColor=#7D7D7D;verticalAlign=top;aspect=fixed;imageAspect=0;editableCssRules=.*;image=data:image/svg+xml,PHN2ZyB4bWxucz0iaHR0cDovL3d3dy53My5vcmcvMjAwMC9zdmciIHZpZXdCb3g9IjEwLjA3MjA1OTYzMTM0NzY1NiAxMi42MDE0Nzg1NzY2NjAxNTYgNzkuODUzNDc3NDc4MDI3MzQgNzQuNzkxNzg2MTkzODQ3NjYiIHZlcnNpb249IjEuMSIgd2lkdGg9Ijc5Ljg1MzQ3NzQ3ODAyNzM0IiBoZWlnaHQ9Ijc0Ljc5MTc4NjE5Mzg0NzY2Ij4mI3hhOyAgPHN0eWxlPi5maWxsIHsgZmlsbDogcmdiKDI1NSwgMTY4LCAwKTsgfSA8L3N0eWxlPiYjeGE7IDxwYXRoIGQ9Im02NC4zMjQgNDIuMzRoLTE0LjA3NGMtMC41MjczNCAwLTAuOTUzMTIgMC40MjU3OC0wLjk1MzEyIDAuOTUzMTJ2MTUuMjI3YzAgMC41MjczNCAwLjQyNTc4IDAuOTUzMTIgMC45NTMxMiAwLjk1MzEyaDE0LjA3NGMwLjUyNzM0IDAgMC45NTMxMi0wLjQyNTc4IDAuOTUzMTItMC45NTMxMnYtMTUuMjI3YzAtMC41MjczNC0wLjQyNTc4LTAuOTUzMTItMC45NTMxMi0wLjk1MzEyem0tMC45NTMxMiAxNS4yMjNoLTEyLjE2OHYtMTMuMzE2aDEyLjE2OHptLTI5LjE3Mi01LjIyNjZjLTAuMDUwNzgxIDIuMDE5NS0xLjMzOTggNC4xMDU1LTMuNDEwMiA1LjI4MTItMC45ODgyOCAwLjU2MjUtMi4wMjczIDAuODM1OTQtMy4wNDMgMC44MzU5NC0xLjQ4ODMgMC0yLjkyOTctMC41ODk4NC00LjEwMTYtMS43MzgzLTAuMzc1LTAuMzY3MTktMC4zODI4MS0wLjk3MjY2LTAuMDExNzE5LTEuMzUxNiAwLjM2NzE5LTAuMzc1IDAuOTcyNjYtMC4zODI4MSAxLjM1MTYtMC4wMTE3MTkgMS45NjA5IDEuOTI1OCA0LjA1ODYgMS4wNjI1IDQuODY3MiAwLjYwNTQ3IDEuNDgwNS0wLjgzOTg0IDIuNDQxNC0yLjMzOTggMi40NTctMy43MDMxLTMuMDg1OS0wLjUzMTI1LTYuNDU3LTMuMTA1NS02LjQ1Ny04Ljg1OTQgMC0wLjUyNzM0IDAuNDI1NzgtMC45NTMxMiAwLjk1MzEzLTAuOTUzMTIgMC41MjczNCAwIDAuOTUzMTIgMC40MjU3OCAwLjk1MzEyIDAuOTUzMTIgMCA0Ljc4OTEgMi43MDcgNi43NzM0IDUuMjM4MyA3LjAzMTIgMC4wMzkwNjIgMC4wMDM5MDcgMC4wNzgxMjUgMC4wMDM5MDcgMC4xMTcxOSAwLjAwNzgxMyAwLjA5Mzc1LTAuMDAzOTA2IDAuMTg3NS0wLjAwMzkwNiAwLjI3NzM0IDAuMDE1NjI1IDIuNTA3OCAwLjA4NTkzNyA1LjM2NzItMS40Mzc1IDYuMDIzNC00LjYwNTUgMC4xMDU0Ny0wLjUxNTYyIDAuNjEzMjgtMC44NDc2NiAxLjEyODktMC43NDIxOSAwLjUxNTYyIDAuMTA1NDcgMC44NDc2NiAwLjYxMzI4IDAuNzQyMTkgMS4xMjg5LTAuNzk2ODggMy44Mzk4LTQuMDA3OCA1Ljg2MzMtNy4wODIgNi4xMDk0em0xLjMxMjUgMTEuMDM1YzAuMDI3MzQzIDAuNTI3MzQtMC4zNzUgMC45NzY1Ni0wLjkwMjM0IDEuMDAzOS0yLjE0MDYgMC4xMTMyOC0zLjI1NzggMS45NzY2LTMuMzk0NSAzLjY1NjItMC4xMzY3MiAxLjY5OTIgMC42NDA2MiAzLjcxNDggMy4yMjY2IDQuMjgxMiAwLjUxNTYyIDAuMTEzMjggMC44Mzk4NCAwLjYyMTA5IDAuNzMwNDcgMS4xMzY3LTAuMDk3NjU2IDAuNDQ1MzEtMC40OTIxOSAwLjc1LTAuOTI5NjkgMC43NS0wLjA2NjQwNyAwLTAuMTM2NzItMC4wMDc4MTMtMC4yMDMxMy0wLjAyMzQzOC0zLjU1MDgtMC43NzM0NC00LjkzMzYtMy43MjI3LTQuNzIyNy02LjI5NjkgMC4xOTkyMi0yLjQ4MDUgMS45MTAyLTUuMjMwNSA1LjE5NTMtNS40MDYyIDAuNTI3MzQtMC4wMjczNDQgMC45NzY1NiAwLjM3NSAxLjAwMzkgMC45MDIzNHptNTAuMDg2LTExLjg5NWMtMS43Njk1IDAtMy4yNDYxIDEuMjE4OC0zLjY3MTkgMi44NTU1aC0xMS44NzV2LTIuNDcyN2g1LjQ2NDhjMC41MjczNCAwIDAuOTUzMTItMC40MjU3OCAwLjk1MzEyLTAuOTUzMTJzLTAuNDI1NzgtMC45NTMxMi0wLjk1MzEyLTAuOTUzMTJoLTUuNDY0OHYtMi41ODk4aDcuNjQwNmMwLjI3NzM0IDAgMC41NDI5Ny0wLjEyMTA5IDAuNzIyNjYtMC4zMzIwM2w2LjIyMjctNy4yNTM5YzAuNDU3MDMgMC4xOTE0MSAwLjk1NzAzIDAuMzAwNzggMS40ODA1IDAuMzAwNzggMi4xMDE2IDAgMy44MDg2LTEuNzA3IDMuODA4Ni0zLjgwODYgMC0yLjEwMTYtMS43MDctMy44MDg2LTMuODA4Ni0zLjgwODYtMi4xMDE2IDAtMy44MDg2IDEuNzA3LTMuODA4NiAzLjgwODYgMCAwLjg4MjgxIDAuMzE2NDEgMS42ODc1IDAuODIwMzEgMi4zMzJsLTUuODc4OSA2Ljg1MTZoLTcuMjAzMXYtMi45Mzc1aDQuNzQyMmMwLjUyNzM0IDAgMC45NTMxMy0wLjQyNTc4IDAuOTUzMTMtMC45NTMxMnYtOS44MjgxYzEuNjM2Ny0wLjQyNTc4IDIuODU1NS0xLjkwMjMgMi44NTU1LTMuNjcxOSAwLTIuMTAxNi0xLjcwNy0zLjgwODYtMy44MDg2LTMuODA4Ni0yLjEwMTYgMC0zLjgwODYgMS43MDctMy44MDg2IDMuODA4NiAwIDEuNzY5NSAxLjIxODggMy4yNDYxIDIuODU1NSAzLjY3MTl2OC44NzExaC0zLjc4OTF2LTAuODA4NTljMC0xLjQ0NTMtMS4xNzU4LTIuNjIxMS0yLjYyMTEtMi42MjExaC00LjgxMjV2LTcuMDE1NmgzLjU2NjRjMC41MjczNCAwIDAuOTUzMTItMC40MjU3OCAwLjk1MzEyLTAuOTUzMTJ2LTkuMTI1YzEuNjM2Ny0wLjQyNTc4IDIuODU1NS0xLjkwMjMgMi44NTU1LTMuNjcxOSAwLTIuMTAxNi0xLjcwNy0zLjgwODYtMy44MDg2LTMuODA4Ni0yLjEwMTYgMC0zLjgwODYgMS43MDctMy44MDg2IDMuODA4NiAwIDEuNzY5NSAxLjIxODggMy4yNDYxIDIuODU1NSAzLjY3MTl2OC4xNjhoLTMuNTY2NGMtMC41MjczNCAwLTAuOTUzMTIgMC40MjU3OC0wLjk1MzEyIDAuOTUzMTJ2Ny45Njg4aC0yLjQ2ODh2LTUuMDc4MWMwLTAuNTI3MzQtMC40MjU3OC0wLjk1MzEyLTAuOTUzMTItMC45NTMxMnMtMC45NTMxMiAwLjQyNTc4LTAuOTUzMTIgMC45NTMxMnY1LjA3ODFoLTIuNDY4OHYtMTUuODc5YzEuNjM2Ny0wLjQyNTc4IDIuODU1NS0xLjkwMjMgMi44NTU1LTMuNjcxOSAwLTIuMTAxNi0xLjcwNy0zLjgwODYtMy44MDg2LTMuODA4Ni0yLjEwMTYgMC0zLjgwODYgMS43MDctMy44MDg2IDMuODA4NiAwIDEuNzY5NSAxLjIxODggMy4yNDYxIDIuODU1NSAzLjY3MTl2MTUuODc5aC00LjgxMjVjLTAuMjY5NTMgMC0wLjUyMzQ0IDAuMDUwNzgxLTAuNzY1NjIgMC4xMjg5MWwtMC4wNTA3ODEtMTMuMjIzYzAtMC4wNzQyMTktMC4wMDc4MTMtMC4xNTIzNC0wLjAyNzM0NC0wLjIyMjY2LTEuMzQzOC01LjQ3MjctNS44OTQ1LTcuNDEwMi05LjQxNDEtNy40MTAyaC0wLjA1ODU5NGMtMy4yNTM5IDAuMDE5NTMyLTYuMjEwOSAyLjA2NjQtNy4zNTU1IDUuMDg5OC0wLjE0MDYyIDAuMzc1LTAuMjQ2MDkgMC43NS0wLjMyNDIyIDEuMTI1LTIuMjUtMC45MDIzNC01LjEzNjcgMC03LjIyNjYgMi4zNTk0LTIuMDkzOCAyLjM2MzMtMi41ODk4IDUuMjkzLTEuMzk4NCA3Ljc0MjItMS4yNTc4IDAuNjUyMzQtMi4zNjcyIDEuNTYyNS0zLjE5OTIgMi42ODM2LTEuOTYwOSAyLjY1MjMtMi4wNTQ3IDYuMDYyNS0wLjMxNjQxIDkuNTMxMi0yLjMyODEgMC4zMzIwMy00LjI1MzkgMS42NTYyLTUuNTExNyAzLjgzMi0yLjAyNzMgMy41LTEuODc1IDguNTc4MSAwLjM2MzI4IDEyLjA3NCAwLjgyODEyIDEuMjg5MSAxLjg4MjggMi4yODUyIDMuMTA5NCAyLjk5MjItMS43NjU2IDIuODQ3Ny0wLjgyMDMxIDYuNDQ1MyAxLjA5MzggOC45NjQ4IDIuMjEwOSAyLjkwNjIgNi4wNzQyIDUgMTAuMTA5IDMuNjY4IDAuODE2NDEgNi4yMTQ4IDUuNzMwNSA4Ljk5NjEgMTAuNTYyIDguOTk2MWgwLjE0ODQ0YzQuNjQ0NS0wLjA1NDY4NyA5LjYwOTQtMi43OTY5IDkuNjU2Mi03Ljc2NTZ2LTAuMDExNzE5LTAuMDAzOTA2bC0wLjA1MDc4MS0xMy4xODRjMC4yMTA5NCAwLjA1NDY4OCAwLjQyOTY5IDAuMDkzNzUgMC42NjAxNiAwLjA5Mzc1aDMuOTU3djE0Ljc3N2MtMS42MzY3IDAuNDI1NzgtMi44NTU1IDEuOTAyMy0yLjg1NTUgMy42NzE5IDAgMi4xMDE2IDEuNzA3IDMuODA4NiAzLjgwODYgMy44MDg2IDIuMTAxNiAwIDMuODA4Ni0xLjcwNyAzLjgwODYtMy44MDg2IDAtMS43Njk1LTEuMjE4OC0zLjI0NjEtMi44NTU1LTMuNjcxOXYtMTQuNzc3aDMuMzI0MnY2LjE2OGMwIDAuNTI3MzQgMC40MjU3OCAwLjk1MzEyIDAuOTUzMTIgMC45NTMxMiAwLjUyNzM0IDAgMC45NTMxMy0wLjQyNTc4IDAuOTUzMTMtMC45NTMxMnYtNi4xNjhoMy43Njk1djExLjgyNGMwIDAuMjU3ODEgMC4xMDU0NyAwLjUwMzkxIDAuMjg5MDYgMC42ODM1OWw1LjE0NDUgNS4wMDM5Yy0wLjE4MzU5IDAuNDQ1MzEtMC4yODkwNiAwLjkzMzU5LTAuMjg5MDYgMS40NDE0IDAgMi4xMDE2IDEuNzA3IDMuODA4NiAzLjgwODYgMy44MDg2IDIuMTAxNiAwIDMuODA4Ni0xLjcwNyAzLjgwODYtMy44MDg2IDAtMi4xMDE2LTEuNzA3LTMuODA4Ni0zLjgwODYtMy44MDg2LTAuODkwNjIgMC0xLjcwMzEgMC4zMjAzMS0yLjM1MTYgMC44MzU5NGwtNC42OTE0LTQuNTYyNXYtMTEuNDIyaDMuNTE1NmMxLjQ0NTMgMCAyLjYyMTEtMS4xNzU4IDIuNjIxMS0yLjYyMTF2LTAuNjI1aDMuNzg5MXY4Ljg3MTFjLTEuNjM2NyAwLjQyNTc4LTIuODU1NSAxLjkwMjMtMi44NTU1IDMuNjcxOSAwIDIuMTAxNiAxLjcwNyAzLjgwODYgMy44MDg2IDMuODA4NiAyLjEwMTYgMCAzLjgwODYtMS43MDcgMy44MDg2LTMuODA4NiAwLTEuNzY5NS0xLjIxODgtMy4yNDYxLTIuODU1NS0zLjY3MTl2LTkuODI4MWMwLTAuNTI3MzQtMC40MjU3OC0wLjk1MzEyLTAuOTUzMTItMC45NTMxMmgtNC43NDIydi0zLjIzODNoMTEuODc1YzAuNDI1NzggMS42MzY3IDEuOTAyMyAyLjg1NTUgMy42NzE5IDIuODU1NSAyLjEwMTYgMCAzLjgwODYtMS43MDcgMy44MDg2LTMuODA4NnMtMS43MDctMy44MDg2LTMuODA4Ni0zLjgwODZ6bTAuNTIzNDQtMTcuMTA5YzEuMDQ2OSAwIDEuODk4NCAwLjg1MTU2IDEuODk4NCAxLjg5ODRzLTAuODUxNTYgMS44OTg0LTEuODk4NCAxLjg5ODQtMS44OTg0LTAuODUxNTYtMS44OTg0LTEuODk4NCAwLjg1MTU2LTEuODk4NCAxLjg5ODQtMS44OTg0em0tMTMuMjI3LTYuMzA4NmMwLTEuMDQ2OSAwLjg1MTU2LTEuODk4NCAxLjg5ODQtMS44OTg0czEuODk4NCAwLjg1MTU2IDEuODk4NCAxLjg5ODQtMC44NTE1NiAxLjg5ODQtMS44OTg0IDEuODk4NC0xLjg5ODQtMC44NTE1Ni0xLjg5ODQtMS44OTg0em0tOC42MDk0LTExLjY0OGMwLTEuMDQ2OSAwLjg1MTU2LTEuODk4NCAxLjg5ODQtMS44OTg0czEuODk4NCAwLjg1MTU2IDEuODk4NCAxLjg5ODQtMC44NTE1NiAxLjg5ODQtMS44OTg0IDEuODk4NC0xLjg5ODQtMC44NTE1Ni0xLjg5ODQtMS44OTg0em0tMTMuMjc3IDEuMjEwOWMwLTEuMDQ2OSAwLjg1MTU2LTEuODk4NCAxLjg5ODQtMS44OTg0czEuODk4NCAwLjg1MTU2IDEuODk4NCAxLjg5ODQtMC44NTE1NiAxLjg5ODQtMS44OTg0IDEuODk4NC0xLjg5ODQtMC44NTE1Ni0xLjg5ODQtMS44OTg0em0yLjk0NTMgNjUuNDY1YzAgMS4wNDY5LTAuODUxNTYgMS44OTg0LTEuODk4NCAxLjg5ODQtMS4wNDY5IDAtMS44OTg0LTAuODUxNTYtMS44OTg0LTEuODk4NCAwLTEuMDQ2OSAwLjg1MTU2LTEuODk4NCAxLjg5ODQtMS44OTg0IDEuMDQ2OSAwIDEuODk4NCAwLjg1MTU2IDEuODk4NCAxLjg5ODR6bTE3LjAxMi0xLjM5NDVjMS4wNDY5IDAgMS44OTg0IDAuODUxNTYgMS44OTg0IDEuODk4NHMtMC44NTE1NiAxLjg5ODQtMS44OTg0IDEuODk4NC0xLjg5ODQtMC44NTE1Ni0xLjg5ODQtMS44OTg0IDAuODUxNTYtMS44OTg0IDEuODk4NC0xLjg5ODR6bTUuNzMwNS03Ljc1NzhjMCAxLjA0NjktMC44NTE1NiAxLjg5ODQtMS44OTg0IDEuODk4NHMtMS44OTg0LTAuODUxNTYtMS44OTg0LTEuODk4NCAwLjg1MTU2LTEuODk4NCAxLjg5ODQtMS44OTg0IDEuODk4NCAwLjg1MTU2IDEuODk4NCAxLjg5ODR6bS00MC41Mi0zLjY4MzZjMC4xNTIzNCAwLjUwMzkxIDAuNjgzNTkgMC43ODkwNiAxLjE4NzUgMC42NDA2MiAxLjgwNDctMC41NDI5NyAzLjU5MzgtMC4yODkwNiA0LjkxMDIgMC42OTkyMiAxLjU2MjUgMS4xNzE5IDIuMzc1IDMuMjkzIDIuMzQ3NyA2LjEyODl2MC4wMDc4MTJjLTAuMDM1MTU2IDMuNzU3OC00LjAyNzMgNS44MzItNy43Njk1IDUuODc1LTMuOTcyNyAwLjA0Njg3Ni04LjY3OTctMi4xNTIzLTguODg2Ny04LjUwMzktMC4wMTE3MTktMC4zMjgxMi0wLjE4NzUtMC42MjUtMC40Njg3NS0wLjc5Mjk3LTAuMjgxMjUtMC4xNjQwNi0wLjYyODkxLTAuMTc1NzgtMC45MjE4OC0wLjAyNzM0NC0zLjQ5NjEgMS43OTMtNy4wMzUyLTAuMDA3ODEzLTguOTk2MS0yLjU4NTktMS41NDY5LTIuMDM1Mi0yLjMzNTktNC45MTgtMC44Mzk4NC03LjAzOTEgMC45Mzc1IDAuMjkyOTcgMS45Mzc1IDAuNDU3MDMgMy4wMDM5IDAuNDU3MDMgMC4zNzEwOSAwIDAuNzUtMC4wMTk1MzEgMS4xMzI4LTAuMDU0Njg3IDAuNTIzNDQtMC4wNTA3ODIgMC45MTAxNi0wLjUxNTYzIDAuODU5MzgtMS4wMzkxcy0wLjUxNTYyLTAuOTEwMTYtMS4wMzkxLTAuODU5MzhjLTMuOTkyMiAwLjM3NS02LjEzNjctMS41ODU5LTcuMjM0NC0zLjI5NjktMS44NzUtMi45MjU4LTIuMDExNy03LjE3MTktMC4zMjAzMS0xMC4wODYgMC44MjgxMi0xLjQyOTcgMi40Mzc1LTMuMTAxNiA1LjQxNDEtMi45NTMxIDAuMzU1NDcgMC4wMTU2MjYgMC42OTUzMS0wLjE2Nzk3IDAuODc1LTAuNDc2NTYgMC4xNzk2OS0wLjMwODU5IDAuMTY3OTctMC42OTUzMS0wLjAyMzQzOC0wLjk5NjA5LTIuMTA5NC0zLjI3NzMtMi4zMDQ3LTYuMzkwNi0wLjU1NDY5LTguNzYxNyAxLjgwODYtMi40NDkyIDUuNDQ1My0zLjY2MDIgOC40NTctMi44MTI1IDIuNzE0OCAwLjc2MTcyIDQuMzcxMSAyLjk5NjEgNC42NjQxIDYuMjg5MSAwLjA0Njg3NSAwLjUyMzQ0IDAuNTExNzIgMC45MTAxNiAxLjAzNTIgMC44NjcxOSAwLjUyMzQ0LTAuMDQ2ODc2IDAuOTE0MDYtMC41MTE3MiAwLjg2NzE5LTEuMDM1Mi0wLjM2MzI4LTQuMDc4MS0yLjU2NjQtNi45ODA1LTYuMDUwOC03Ljk1Ny0xLjgwNDctMC41MDc4MS0zLjc0MjItMC40MzM1OS01LjUzNTIgMC4xMDkzOC0xLjEwNTUtMi4wOTM4LTAuMjM0MzctNC4zMDQ3IDEuMDUwOC01Ljc1NzggMS4zOTQ1LTEuNTc0MiAzLjY5NTMtMi42NzU4IDUuMzkwNi0xLjczNDQgMC4wOTM3NSAwLjA1MDc4MSAwLjE5NTMxIDAuMDc0MjE4IDAuMjk2ODggMC4wOTM3NSAwLjE2MDE2IDEuODc4OSAxLjA3ODEgMy42ODM2IDIuNzEwOSA1LjE0MDYgMC4zOTQ1MyAwLjM1MTU2IDAuOTk2MDkgMC4zMTY0MSAxLjM0NzctMC4wNzQyMTggMC4zNTE1Ni0wLjM5NDUzIDAuMzE2NDEtMC45OTYwOS0wLjA3NDIxOS0xLjM0NzctMS45NDE0LTEuNzM4My0yLjU4Mi0zLjk4MDUtMS43NjE3LTYuMTUyMyAwLjg2NzE5LTIuMjkzIDMuMTA5NC0zLjg0MzggNS41ODItMy44NTk0IDEuMDIzNC0wLjAwNzgxMyA2LjEzNjcgMC4yNSA3LjU3ODEgNS44NDc3bDAuMTA1NDcgMjYuNzAzdjExLjEwOWMwIDAuMTUyMzQgMC4wMTk1MzEgMC4zMDA3OCAwLjA0Njg3NSAwLjQ0NTMxbDAuMDM1MTU2IDguNzQyMmMtMC4zODY3Mi0wLjQ3MjY2LTAuNzkyOTctMC44NTE1Ni0xLjE3OTctMS4xNDQ1LTEuODA4Ni0xLjM1NTUtNC4yMTQ4LTEuNzE4OC02LjYwNTUtMS0wLjUwMzkxIDAuMTUyMzQtMC43ODkwNiAwLjY4MzU5LTAuNjQwNjIgMS4xODc1em0zMS45NjktOC4yMzQ0YzAgMC4zOTQ1My0wLjMyMDMxIDAuNzEwOTQtMC43MTA5NCAwLjcxMDk0aC0yMC4yODljLTAuMzE2NDEgMC0wLjU3NDIyLTAuMjEwOTQtMC42Njc5Ny0wLjQ5MjE5bC0wLjA0Mjk2OC0xMS4zMjR2LTExLjExM2MwLTAuMzk0NTMgMC4zMjAzMS0wLjcxMDk0IDAuNzEwOTQtMC43MTA5NGgyMC4yODljMC4zOTQ1MyAwIDAuNzEwOTQgMC4zMjAzMSAwLjcxMDk0IDAuNzEwOTR6bTE3LjQ1My00LjgyODFjLTEuMDQ2OSAwLTEuODk4NC0wLjg1MTU2LTEuODk4NC0xLjg5ODQgMC0xLjA0NjkgMC44NTE1Ni0xLjg5ODQgMS44OTg0LTEuODk4NHMxLjg5ODQgMC44NTE1NiAxLjg5ODQgMS44OTg0YzAgMS4wNDY5LTAuODUxNTYgMS44OTg0LTEuODk4NCAxLjg5ODR6IiBjbGFzcz0iZmlsbCIvPjwvc3ZnPg==;fontColor=light-dark(#FFFFFF,#000000);fontSize=20;" parent="1" vertex="1">
          <mxGeometry x="362.595" y="510" width="80" height="75" as="geometry" />
        </mxCell>
        <mxCell id="UfiFrbzt1qPrqhalN9Oj-58" style="edgeStyle=orthogonalEdgeStyle;rounded=0;orthogonalLoop=1;jettySize=auto;html=1;exitX=0.5;exitY=1;exitDx=0;exitDy=0;strokeColor=light-dark(#FFFFFF,#FFFFFF);strokeWidth=2;entryX=0;entryY=0.5;entryDx=0;entryDy=0;" parent="1" source="mcp-host-border" target="UfiFrbzt1qPrqhalN9Oj-57" edge="1">
          <mxGeometry relative="1" as="geometry">
            <mxPoint x="220" y="600" as="sourcePoint" />
            <mxPoint x="324" y="600" as="targetPoint" />
          </mxGeometry>
        </mxCell>
      </root>
    </mxGraphModel>
  </diagram>
</mxfile>
